<?xml version="1.0" encoding="utf-8"?>
<!-- Generator: Adobe Illustrator 16.0.0, SVG Export Plug-In . SVG Version: 6.00 Build 0)  -->
<!DOCTYPE svg PUBLIC "-//W3C//DTD SVG 1.1//EN" "http://www.w3.org/Graphics/SVG/1.1/DTD/svg11.dtd">
<svg version="1.1" id="Layer_1" xmlns="http://www.w3.org/2000/svg" xmlns:xlink="http://www.w3.org/1999/xlink" x="0px" y="0px"
	 width="24.993px" height="25px" viewBox="0 0 24.993 25" enable-background="new 0 0 24.993 25" xml:space="preserve">
<g>
	<path fill="#FFFFFF" d="M1.339,16.807H1.335c0.002,0.004,0.003,0.006,0.004,0.01c0.002,0.024,0.007,0.048,0.011,0.071
		c0,0.004,0,0.007,0,0.011l0.958,6.22c0.116,0.755,0.822,1.272,1.577,1.156s1.272-0.821,1.157-1.577L4.893,21.73
		c0.174,0.144,0.349,0.285,0.53,0.418c2.464,1.81,5.634,2.679,8.896,2.176c3.26-0.501,6.021-2.284,7.827-4.751
		c0.893-1.216,1.549-2.607,1.931-4.094l-3.773-1.038c-0.254,1.021-0.702,1.977-1.317,2.815c-1.222,1.663-3.063,2.855-5.265,3.195
		c-2.2,0.338-4.315-0.244-5.98-1.464c-0.205-0.15-0.401-0.313-0.592-0.482l1.095,0.106c0.7,0.067,1.327-0.493,1.401-1.254
		c0.073-0.761-0.435-1.432-1.135-1.5l-5.769-0.558c-0.626-0.061-1.19,0.384-1.355,1.021c-0.013,0.044-0.019,0.09-0.027,0.138
		c-0.005,0.031-0.015,0.062-0.018,0.095c-0.001,0.01,0,0.019,0,0.028c-0.003,0.042-0.002,0.085-0.001,0.128
		C1.34,16.743,1.337,16.775,1.339,16.807z"/>
	<path fill="#FFFFFF" d="M23.653,8.193l0.004,0c-0.001-0.003-0.003-0.006-0.004-0.009c-0.001-0.024-0.006-0.048-0.01-0.072
		c0-0.003,0-0.007,0-0.01l-0.958-6.22c-0.116-0.754-0.822-1.272-1.578-1.156c-0.755,0.116-1.272,0.822-1.155,1.577l0.148,0.967
		c-0.174-0.144-0.35-0.285-0.53-0.418c-2.464-1.809-5.635-2.679-8.895-2.176c-3.26,0.501-6.022,2.284-7.828,4.75
		C1.955,6.642,1.299,8.034,0.917,9.52l3.773,1.039c0.254-1.021,0.702-1.977,1.317-2.816c1.222-1.664,3.063-2.855,5.265-3.195
		c2.2-0.338,4.315,0.244,5.981,1.463c0.204,0.15,0.4,0.313,0.59,0.482L16.75,6.387c-0.7-0.068-1.327,0.494-1.4,1.254
		c-0.074,0.76,0.435,1.432,1.135,1.5l5.767,0.558c0.626,0.061,1.191-0.383,1.356-1.021c0.013-0.045,0.02-0.091,0.026-0.138
		c0.006-0.032,0.016-0.062,0.019-0.095c0.001-0.009,0-0.018,0-0.027c0.003-0.043,0.001-0.086,0-0.129
		C23.652,8.257,23.655,8.224,23.653,8.193z"/>
</g>
</svg>
