<?xml version="1.0" encoding="utf-8"?>
<!-- Generator: Adobe Illustrator 16.0.0, SVG Export Plug-In . SVG Version: 6.00 Build 0)  -->
<!DOCTYPE svg PUBLIC "-//W3C//DTD SVG 1.1//EN" "http://www.w3.org/Graphics/SVG/1.1/DTD/svg11.dtd">
<svg version="1.1" id="Layer_1" xmlns="http://www.w3.org/2000/svg" xmlns:xlink="http://www.w3.org/1999/xlink" x="0px" y="0px"
	 width="25px" height="25px" viewBox="0 0 25 25" enable-background="new 0 0 25 25" xml:space="preserve">
<g>
	<path fill="#FFFFFF" d="M23.445,23.446c2.073-2.073,2.073-5.446,0-7.519L20.019,12.5l3.427-3.427c2.073-2.073,2.073-5.446,0-7.519
		c-1.004-1.004-2.339-1.557-3.759-1.557s-2.755,0.553-3.76,1.557L12.5,4.982L9.073,1.554C8.068,0.55,6.733-0.002,5.313-0.002
		c-1.419,0-2.755,0.553-3.759,1.557c-2.072,2.073-2.072,5.446,0,7.519L4.981,12.5l-3.427,3.426c-2.072,2.073-2.072,5.446,0,7.519
		c1.004,1.004,2.34,1.557,3.759,1.557c1.42,0,2.755-0.553,3.759-1.557l3.427-3.427l3.427,3.427c1.005,1.004,2.34,1.557,3.76,1.557
		S22.441,24.45,23.445,23.446L23.445,23.446z M23.445,23.446"/>
</g>
</svg>
