<?xml version="1.0" encoding="utf-8"?>
<!-- Generator: Adobe Illustrator 16.0.0, SVG Export Plug-In . SVG Version: 6.00 Build 0)  -->
<!DOCTYPE svg PUBLIC "-//W3C//DTD SVG 1.1//EN" "http://www.w3.org/Graphics/SVG/1.1/DTD/svg11.dtd">
<svg version="1.1" id="Layer_1" xmlns="http://www.w3.org/2000/svg" xmlns:xlink="http://www.w3.org/1999/xlink" x="0px" y="0px"
	 width="340.984px" height="62.91px" viewBox="0 0 340.984 62.91" enable-background="new 0 0 340.984 62.91" xml:space="preserve">
<g>
	<path fill-rule="evenodd" clip-rule="evenodd" fill="#FF0000" d="M339.142,30.887c0.168,0.185,0.302,0.335,0.439,0.482
		c0.372,0.397,0.336,0.854,0.193,1.324c-0.062,0.204-0.209,0.342-0.401,0.428c-0.646,0.287-1.285,0.604-2.029,0.453
		c-0.064-0.013-0.134-0.008-0.201-0.006c-0.766,0.015-1.025,0.246-1.087,1.01c-0.075,0.951,0.063,1.888,0.403,2.767
		c0.506,1.298,0.743,2.648,0.921,4.013c0.233,1.795,0.435,3.595,0.554,5.402c0.065,1.001,0.055,2.012,0.195,3.002
		c0.221,1.553,0.209,3.16,0.979,4.607c0.184,0.346,0.237,0.764,0.334,1.154c0.436,1.761,0.826,3.529,0.897,5.354
		c0.017,0.433-0.086,0.793-0.352,1.12c-0.021,0.026-0.045,0.051-0.067,0.075c-0.588,0.596-2.234,0.558-2.787-0.063
		c-0.022-0.025-0.059-0.045-0.067-0.074c-0.226-0.772-0.9-1.348-0.961-2.193c-0.027-0.378-0.194-0.711-0.351-1.046
		c-0.185-0.396-0.335-0.812-0.558-1.184c-0.585-0.979-0.718-2.055-0.488-3.116c0.171-0.793,0.065-1.538-0.013-2.296
		c-0.151-1.47-0.328-2.939-0.55-4.4c-0.151-0.993-0.389-1.974-0.602-2.958c-0.219-1.015-0.56-2.005-0.64-3.05
		c-0.008-0.1-0.004-0.212-0.048-0.297c-0.538-1.057-0.58-2.274-1.098-3.344c-0.381-0.792-0.482-1.673-0.63-2.533
		c-0.08-0.463-0.114-0.935-0.203-1.396c-0.126-0.649-0.392-0.912-1.015-0.884c-0.563,0.025-1.128,0.135-1.681,0.258
		c-0.386,0.085-0.618,0.35-0.699,0.769c-0.185,0.955-0.422,1.895-0.426,2.883c-0.003,0.973-0.077,1.955-0.196,2.914
		c-0.161,1.308-0.136,2.608-0.146,3.914c-0.005,0.705-0.184,1.392-0.196,2.102c-0.028,1.61-0.228,3.225-0.143,4.827
		c0.073,1.371,0.026,2.75,0.229,4.121c0.142,0.957,0.068,1.945,0.088,2.919c0.002,0.1,0.018,0.227-0.033,0.297
		c-0.359,0.495-0.446,1.103-0.701,1.639c-0.103,0.215-0.292,0.357-0.535,0.429c-1.132,0.336-2.304,0.459-3.463,0.648
		c-0.533,0.086-0.894-0.264-0.949-0.808c-0.01-0.1-0.024-0.206-0.002-0.302c0.224-0.957,0.108-1.946,0.284-2.907
		c0.085-0.463,0.171-0.928,0.102-1.403c-0.047-0.316,0.086-0.598,0.198-0.875c0.433-1.073,0.557-2.216,0.762-3.338
		c0.113-0.621,0.092-1.266,0.133-1.9c0.041-0.637,0.101-1.268,0.221-1.899c0.145-0.756,0.206-1.523,0.202-2.302
		c-0.009-1.916-0.045-3.832,0.055-5.748c0.072-1.373,0.013-2.756,0.144-4.122c0.134-1.399,0.083-2.806,0.365-4.205
		c0.384-1.906,0.592-3.849,0.843-5.78c0.073-0.563,0.029-1.14,0.056-1.71c0.056-1.205-0.053-2.409-0.014-3.613
		c0.024-0.739,0.083-1.476,0.028-2.217c-0.016-0.228,0.059-0.462,0.085-0.695c0.035-0.3,0.117-0.606,0.087-0.901
		c-0.132-1.28,0.099-2.547,0.094-3.822c-0.002-0.569,0.051-1.141-0.16-1.693c-0.045-0.119-0.075-0.283-0.03-0.391
		c0.273-0.656,0.118-1.332,0.111-1.997c-0.006-0.504,0.03-0.997,0.077-1.498c0.055-0.594,0.365-0.993,0.742-1.377
		c0.188-0.191,0.466-0.309,0.608-0.523c0.383-0.576,0.966-0.7,1.571-0.761c0.734-0.074,1.474-0.127,2.212-0.138
		c0.841-0.013,1.682,0.018,2.521,0.057c0.333,0.016,0.685,0.049,0.987,0.175c0.436,0.181,0.857,0.361,1.336,0.413
		c0.188,0.02,0.374,0.147,0.538,0.259c1.058,0.715,2.112,1.436,3.16,2.167c0.161,0.113,0.317,0.265,0.412,0.435
		c0.266,0.474,0.627,0.872,0.953,1.299c0.418,0.548,0.503,1.239,0.682,1.881c0.106,0.381,0.173,0.784,0.096,1.197
		c-0.042,0.227-0.04,0.477,0.005,0.703c0.241,1.196,0.145,2.415,0.259,3.619c0.083,0.867,0.042,1.74,0.175,2.611
		c0.09,0.582-0.012,1.199-0.071,1.795c-0.048,0.473-0.031,0.94-0.011,1.411c0.063,1.445-0.026,2.885-0.149,4.322
		c-0.052,0.597-0.053,1.197-0.187,1.792c-0.117,0.518-0.41,0.994-0.361,1.558c0.012,0.126-0.164,0.279-0.274,0.402
		C339.681,30.373,339.343,30.502,339.142,30.887z M332.299,29.125c0.712-0.074,1.429,0.155,1.945-0.465
		c0.057-0.067,0.183-0.104,0.276-0.104c0.71-0.004,1.113-0.546,1.635-0.891c0.692-0.457,0.696-1.252,1.022-1.888
		c-0.018-0.837,0.195-1.667,0.08-2.51c-0.035-0.26,0.021-0.533,0.029-0.8c0.03-0.906,0.069-1.814-0.361-2.658
		c-0.11-0.217-0.14-0.449-0.123-0.687c0.021-0.304-0.019-0.599-0.058-0.9c-0.091-0.732-0.173-1.468-0.195-2.204
		c-0.04-1.31-0.117-2.616-0.443-3.886c-0.215-0.841-0.673-1.544-1.564-1.813c-0.459-0.138-0.891-0.327-1.266-0.608
		c-1.267-0.949-2.732-1.018-4.22-0.991c-0.349,0.006-0.533,0.199-0.622,0.545c-0.1,0.394-0.104,0.795-0.125,1.199
		c-0.039,0.769-0.187,1.534-0.19,2.301c-0.006,1.34,0.009,2.683,0.047,4.019c0.06,2.046-0.187,4.102,0.15,6.14
		c-0.076,1.813,0.115,3.628-0.035,5.44c-0.008,0.099-0.007,0.205,0.019,0.3c0.039,0.144,0.151,0.218,0.302,0.194
		c0.097-0.015,0.2-0.041,0.283-0.092c0.438-0.268,0.817-0.245,1.15,0.18c0.215,0.274,0.535,0.27,0.835,0.223
		C331.368,29.088,331.86,28.964,332.299,29.125z"/>
	<path fill-rule="evenodd" clip-rule="evenodd" fill="#FF0000" d="M261.994,23.794c-0.253,0.899,0,1.668-0.045,2.441
		c-0.026,0.468-0.01,0.932-0.121,1.4c-0.105,0.452-0.076,0.931-0.106,1.395c-0.061,0.926,0.052,1.887-0.367,2.767
		c-0.079,0.166-0.055,0.307,0.001,0.476c0.255,0.777,0.371,1.562,0.042,2.353c-0.093,0.222-0.124,0.455-0.095,0.693
		c0.101,0.835-0.015,1.67-0.005,2.506c0.001,0.099,0.007,0.219-0.042,0.295c-0.357,0.563-0.299,1.15-0.142,1.751
		c0.023,0.094,0.036,0.213,0.001,0.297c-0.236,0.562-0.075,1.126-0.045,1.694c0.029,0.567,0.051,1.129-0.048,1.706
		c-0.093,0.551-0.009,1.134,0.021,1.702c0.029,0.576,0.006,1.133-0.218,1.682c-0.235,0.576-0.213,1.19-0.121,1.793
		c0.139,0.902,0.174,1.814,0.129,2.717c-0.061,1.178-0.006,2.348,0.072,3.52c0.021,0.302,0.027,0.606,0.08,0.903
		c0.067,0.383,0.042,0.735-0.182,1.063c-0.165,0.243-0.179,0.496-0.055,0.764c0.193,0.414,0.137,0.861,0.136,1.294
		c0,0.492-0.215,0.738-0.711,0.816c-0.299,0.047-0.593,0.086-0.88,0.198c-0.86,0.336-1.228-0.302-1.318-0.917
		c-0.053-0.358-0.021-0.737-0.118-1.095c-0.271-1.005-0.475-2.023-0.665-3.047c-0.091-0.486-0.298-0.953-0.415-1.445
		c-0.167-0.703-0.167-1.397-0.129-2.104c0.059-1.074,0.101-2.148,0.16-3.222c0.03-0.537,0.104-1.072,0.122-1.608
		c0.02-0.537-0.002-1.076-0.013-1.614c-0.002-0.167-0.068-0.343-0.035-0.5c0.287-1.364-0.039-2.751,0.172-4.119
		c0.087-0.563,0.066-1.144,0.172-1.703c0.199-1.066-0.006-2.15,0.195-3.214c0.2-1.061,0.174-2.142,0.255-3.213
		c0.131-1.708,0.154-3.42,0.2-5.131c0.043-1.581,0.055-3.162-0.014-4.743c-0.028-0.671-0.021-1.344,0-2.015
		c0.021-0.64-0.032-1.275-0.055-1.913c-0.026-0.768,0.034-1.541,0.092-2.308c0.044-0.569,0.121-1.117-0.064-1.691
		c-0.153-0.48,0.008-1,0.101-1.488c0.068-0.362,0.067-0.654-0.217-0.917c-0.221-0.203-0.222-0.482-0.197-0.753
		c0.066-0.739-0.176-1.471-0.042-2.213c0.044-0.243-0.105-0.458-0.234-0.652c-0.259-0.392-0.166-0.771,0.012-1.15
		c0.232-0.496,0.639-0.861,0.995-1.26c0.165-0.186,0.432-0.217,0.657-0.101c0.353,0.184,0.698,0.357,0.979,0.681
		c0.367,0.422,0.768,0.854,1.398,0.916c0.45,0.044,0.599,0.395,0.68,0.771c0.073,0.341-0.083,0.581-0.381,0.746
		c-0.085,0.047-0.149,0.13-0.214,0.188c-0.021,0.258,0.183,0.351,0.317,0.483c0.249,0.244,0.419,0.513,0.421,0.882
		c0.002,0.16,0.097,0.318,0.141,0.479c0.209,0.775,0.436,1.537,0.424,2.366c-0.01,0.658,0.033,1.349,0.486,1.92
		c0.096,0.121,0.161,0.322,0.138,0.469c-0.08,0.502,0.104,0.924,0.323,1.346c0.047,0.088,0.085,0.185,0.108,0.282
		c0.259,1.075,0.717,2.097,0.823,3.213c0.133,1.384,0.674,2.666,1.049,3.989c0.292,1.032,0.633,2.049,0.95,3.074
		c0.02,0.063,0.009,0.144,0.043,0.195c0.394,0.575,0.578,1.201,0.52,1.901c-0.01,0.121,0.067,0.26,0.135,0.373
		c0.278,0.467,0.371,1.009,0.592,1.487c0.373,0.812,0.489,1.673,0.652,2.524c0.151,0.794,0.31,1.579,0.634,2.324
		c0.493,1.135,0.821,2.345,1.521,3.387c0.206,1.059,0.974,1.906,1.114,2.998c0.051,0.393,0.238,0.769,0.364,1.151
		c0.011,0.032,0.027,0.061,0.041,0.092c0.04,0.099,0.107,0.175,0.219,0.128c0.045-0.019,0.09-0.097,0.093-0.15
		c0.01-0.167,0.008-0.336-0.003-0.504c-0.083-1.284,0.074-2.551,0.23-3.821c0.131-1.067,0.316-2.139,0.319-3.209
		c0.003-0.801,0.04-1.604,0.031-2.408c-0.022-2.151,0.054-4.302,0.204-6.451c0.109-1.543,0.113-3.086-0.02-4.635
		c-0.111-1.304-0.065-2.621-0.091-3.932c-0.026-1.277-0.059-2.554-0.078-3.831c-0.005-0.334-0.015-0.666,0.019-1.004
		c0.069-0.694,0.193-1.402-0.131-2.083c-0.064-0.135-0.024-0.329-0.006-0.493c0.121-1.069,0.261-2.136-0.135-3.185
		c-0.043-0.113-0.021-0.273,0.023-0.392c0.21-0.567,0.445-1.125,0.657-1.691c0.152-0.407,0.444-0.553,0.86-0.551
		c0.493,0.002,0.906,0.14,1.278,0.489c0.549,0.515,0.976,1.135,1.329,1.766c0.331,0.592,0.463,1.29,0.355,2.034
		c-0.144,0.994-0.178,2.008-0.192,3.014c-0.032,2.417-0.034,4.831-0.404,7.231c-0.117,0.757-0.127,1.542-0.089,2.309
		c0.065,1.28-0.058,2.552-0.085,3.828c-0.022,0.974-0.098,1.947-0.146,2.92c-0.037,0.77-0.032,1.538-0.191,2.302
		c-0.229,1.098-0.1,2.217,0.004,3.314c0.074,0.783-0.01,1.543-0.038,2.313c-0.041,1.074-0.152,2.146-0.152,3.219
		c0,1.378,0.079,2.756,0.125,4.135c0.011,0.335,0.075,0.662,0.127,0.993c0.104,0.653,0.121,1.321,0.142,1.984
		c0.006,0.197-0.073,0.403,0.004,0.596c0.29,0.73,0.304,1.506,0.402,2.269c0.129,0.998,0.178,2.023,0.455,2.98
		c0.256,0.884,0.35,1.774,0.484,2.667c0.031,0.205,0.042,0.399-0.048,0.591c-0.243,0.517-0.485,1.035-0.728,1.553
		c-0.224,0.478-0.623,0.831-1.044,1.066c-0.523,0.292-1.159,0.357-1.757,0.178c-0.383-0.115-0.59-0.444-0.622-0.842
		c-0.024-0.3-0.009-0.605,0.004-0.907c0.054-1.274-0.221-2.464-0.881-3.564c-0.137-0.229-0.252-0.481-0.325-0.737
		c-0.323-1.14-0.913-2.166-1.375-3.245c-0.37-0.864-0.76-1.72-1.138-2.581c-0.259-0.588-0.395-1.214-0.559-1.832
		c-0.231-0.875-0.405-1.774-0.732-2.613c-0.229-0.589-0.493-1.173-0.742-1.759c-0.342-0.804-0.694-1.602-1.03-2.408
		c-0.09-0.215-0.137-0.449-0.196-0.676c-0.509-1.915-1.119-3.797-1.745-5.676c-0.308-0.924-0.593-1.849-1.022-2.729
		c-0.202-0.414-0.234-0.907-0.36-1.36c-0.412-1.487-0.829-2.973-1.25-4.458C262.185,24.145,262.108,24.031,261.994,23.794z"/>
	<path fill-rule="evenodd" clip-rule="evenodd" fill="#FF0000" d="M47.751,20.882c-0.035,1.04-0.02,2.074,0.095,3.114
		c0.119,1.084-0.278,2.047-1.019,2.853c-0.086,0.095-0.216,0.187-0.338,0.206c-0.594,0.096-0.988,0.554-1.497,0.802
		c-0.143,0.069-0.3,0.197-0.36,0.337c-0.256,0.598-0.823,0.752-1.336,0.981c-0.46,0.205-0.927,0.396-1.399,0.573
		c-0.224,0.083-0.334,0.223-0.309,0.45c0.039,0.368,0.034,0.757,0.158,1.096c0.535,1.453,0.786,2.988,1.311,4.441
		c0.433,1.2,0.913,2.384,1.492,3.522c0.753,1.481,1.271,3.037,1.57,4.667c0.14,0.763,0.387,1.489,0.661,2.216
		c0.352,0.938,0.858,1.825,0.987,2.847c0.052,0.408,0.043,0.802-0.014,1.203c-0.053,0.375-0.261,0.612-0.629,0.699
		c-0.357,0.083-0.714,0.171-1.076,0.228c-0.315,0.049-0.582-0.063-0.824-0.285c-0.877-0.805-0.973-0.922-1.75-2.43
		c-0.108-0.209-0.229-0.417-0.301-0.639c-0.168-0.518-0.43-0.98-0.734-1.429c-0.281-0.416-0.463-0.881-0.649-1.353
		c-0.407-1.035-0.728-2.091-1.018-3.161c-0.044-0.162-0.114-0.322-0.124-0.486c-0.063-1.125-0.488-2.164-0.802-3.224
		c-0.188-0.635-0.521-1.232-0.827-1.827c-0.464-0.897-0.922-1.794-1.237-2.758c-0.083-0.253-0.202-0.496-0.318-0.737
		c-0.102-0.212-0.282-0.403-0.326-0.624c-0.213-1.064-1.063-1.584-1.809-2.2c-0.19-0.157-0.418-0.201-0.638-0.284
		c-1.028-0.385-1.052,0.019-0.914,0.824c0.193,1.125,0.3,2.263,0.496,3.384c0.172,0.982,0.273,2.003,0.791,2.895
		c0.18,0.309,0.179,0.649,0.205,0.978c0.049,0.604,0.087,1.206,0.204,1.802c0.038,0.196,0.056,0.403,0.041,0.602
		c-0.118,1.61-0.027,3.22-0.031,4.83c-0.003,0.941-0.042,1.883-0.069,2.825c-0.018,0.582-0.28,1.029-0.768,1.344
		c-0.339,0.219-0.686,0.425-1.019,0.651c-0.174,0.118-0.354,0.187-0.562,0.193c-0.27,0.008-0.539,0.016-0.808,0.026
		c-0.924,0.035-1.44-0.404-1.546-1.319c-0.003-0.033-0.005-0.067-0.002-0.101c0.104-1.477-0.169-2.946-0.06-4.428
		c0.088-1.204,0.175-2.415,0.086-3.625c-0.108-1.471-0.164-2.944-0.38-4.409c-0.168-1.129-0.136-2.28-0.14-3.424
		c-0.004-1.076,0-2.155-0.097-3.225c-0.051-0.571-0.038-1.141-0.064-1.708c-0.094-2.044-0.25-4.085-0.222-6.137
		c0.021-1.575-0.134-3.153-0.229-4.729c-0.026-0.437-0.058-0.867-0.015-1.308c0.035-0.364-0.009-0.738-0.028-1.106
		c-0.03-0.571-0.05-1.138,0.013-1.712c0.081-0.736,0.083-1.45-0.48-2.081c-0.302-0.339-0.427-0.832-0.425-1.323
		c0.003-0.526,0.217-0.897,0.712-1.108c0.536-0.229,1.098-0.316,1.671-0.333c0.502-0.015,1.013-0.038,1.508,0.027
		c1.341,0.178,2.686,0.138,4.03,0.131c0.575-0.003,1.141,0.041,1.709,0.125c0.698,0.104,1.4,0.186,2.109,0.105
		c0.1-0.011,0.213-0.043,0.3-0.011c1.002,0.363,2.093,0.383,3.049,0.974c1.018,0.629,1.898,1.358,2.614,2.313
		c0.271,0.361,0.455,0.742,0.554,1.172c0.426,1.835,0.758,3.688,0.89,5.567C47.869,19.198,47.776,20.042,47.751,20.882z
		 M44.609,22.244c0.054-0.246,0.044-0.51,0.003-0.78c-0.205-1.362-0.431-2.722-0.588-4.09c-0.104-0.899-0.42-1.694-0.937-2.414
		c-0.41-0.571-0.842-1.121-1.423-1.551c-0.653-0.483-1.432-0.647-2.168-0.709c-1.154-0.097-2.337-0.302-3.495,0.081
		c-0.178,0.059-0.397-0.005-0.597-0.012c-0.474-0.016-0.938,0.013-1.38,0.216c-0.27,0.124-0.442,0.31-0.456,0.606
		c-0.017,0.368-0.008,0.737-0.015,1.105c-0.017,0.972-0.009,1.946-0.066,2.916c-0.028,0.475-0.064,0.938,0.088,1.395
		c0.087,0.262,0.097,0.517,0.045,0.792c-0.057,0.295-0.068,0.6-0.076,0.901c-0.021,0.805-0.002,1.611-0.212,2.401
		c-0.136,0.513,0.038,0.997,0.19,1.479c0.056,0.178,0.173,0.288,0.357,0.305c1.228,0.12,2.462,0.131,3.686,0.347
		c0.685,0.121,1.403,0.09,2.104,0.064c0.698-0.026,1.41,0.064,2.093-0.167c0.201-0.068,0.397-0.04,0.586,0.048
		c0.091,0.042,0.178,0.098,0.273,0.127c0.175,0.056,0.33,0.036,0.412-0.161c0.064-0.153,0.095-0.339,0.201-0.454
		c0.41-0.443,0.666-1.014,1.153-1.39c0.179-0.138,0.227-0.321,0.223-0.532C44.607,22.602,44.609,22.434,44.609,22.244z"/>
	<path fill-rule="evenodd" clip-rule="evenodd" fill="#FF0000" d="M304.015,50.064c0.093-0.86-0.17-1.883-0.223-2.918
		c-0.034-0.684-0.228-1.389,0.006-2.084c0.051-0.151,0.045-0.338,0.012-0.498c-0.124-0.602-0.072-1.203-0.047-1.809
		c0.063-1.512,0.12-3.024,0.33-4.523c0.126-0.897,0.294-1.79,0.473-2.678c0.214-1.06,0.306-2.127,0.289-3.207
		c-0.005-0.335-0.052-0.693,0.045-1.002c0.185-0.593,0.204-1.201,0.19-1.796c-0.025-1.082,0.137-2.143,0.224-3.213
		c0.069-0.835,0.079-1.676,0.145-2.512c0.066-0.861,0.107-1.725,0.337-2.568c0.095-0.352,0.125-0.73,0.124-1.097
		c-0.004-0.979,0.243-1.931,0.294-2.903c0.034-0.669,0.167-1.331,0.114-2.006c-0.013-0.161,0.02-0.339,0.082-0.488
		c0.2-0.48,0.209-0.965,0.185-1.481c-0.026-0.562,0.211-1.124,0.117-1.696c-0.1-0.614,0.075-1.199,0.167-1.789
		c0.068-0.442,0.38-0.771,0.688-1.085c0.281-0.288,0.637-0.537,0.82-0.878c0.276-0.514,0.641-0.622,1.162-0.532
		c0.3,0.052,0.614,0.02,0.884-0.137c0.916-0.535,1.946-0.69,2.953-0.935c0.415-0.101,0.872-0.105,1.219-0.433
		c0.086-0.081,0.268-0.135,0.378-0.104c0.786,0.214,1.676,0.047,2.338,0.727c0.631,0.647,1.328,1.23,1.779,2.032
		c0.081,0.145,0.186,0.291,0.213,0.448c0.068,0.382,0.207,0.694,0.556,0.911c0.221,0.137,0.288,0.399,0.18,0.627
		c-0.161,0.338-0.072,0.647,0.007,0.972c0.165,0.677,0.262,1.363,0.509,2.03c0.229,0.621,0.193,1.322,0.152,1.988
		c-0.016,0.271-0.007,0.52,0.035,0.788c0.084,0.529,0.112,1.069,0.138,1.605c0.051,1.036,0.128,2.069,0.205,3.103
		c0.076,1.033,0.17,2.071,0.254,3.103c0.087,1.068,0.097,2.137,0.152,3.204c0.035,0.663,0.065,1.34-0.283,1.965
		c-0.132,0.236-0.083,0.529-0.035,0.794c0.078,0.435,0.126,0.854-0.05,1.289c-0.082,0.204-0.053,0.463-0.038,0.695
		c0.03,0.475,0.026,0.935-0.203,1.375c-0.072,0.139-0.092,0.329-0.072,0.488c0.102,0.847-0.036,1.673-0.178,2.502
		c-0.032,0.196-0.028,0.399-0.03,0.599c-0.001,0.1,0.051,0.207,0.028,0.299c-0.229,0.955-0.084,1.944-0.286,2.903
		c-0.158,0.754-0.242,1.524-0.394,2.281c-0.26,1.293-0.229,2.603-0.255,3.91c-0.003,0.134,0.047,0.281,0.008,0.401
		c-0.266,0.826-0.101,1.664-0.095,2.498c0.009,1.248-0.313,2.46-0.427,3.695c-0.022,0.234-0.077,0.467-0.079,0.701
		c-0.006,0.784-0.122,1.523-0.536,2.223c-0.197,0.332-0.231,0.767-0.311,1.161c-0.14,0.696-0.521,1.22-1.068,1.653
		c-0.647,0.511-1.384,0.5-2.113,0.339c-0.369-0.081-0.682-0.197-1.054,0.002c-0.366,0.196-0.793-0.091-1.188,0.081
		c-0.337,0.147-0.688,0.292-1.047,0.353c-0.394,0.066-0.8,0.112-1.205,0.033c-0.164-0.032-0.339-0.092-0.496-0.064
		c-1.126,0.2-1.934-0.399-2.687-1.083c-0.261-0.236-0.529-0.412-0.852-0.509c-0.419-0.126-0.673-0.399-0.863-0.784
		c-0.269-0.543-0.533-1.072-0.609-1.693c-0.073-0.596-0.44-1.113-0.527-1.727c-0.078-0.556-0.224-1.106-0.4-1.652
		C303.982,51.429,304.058,50.823,304.015,50.064z M307.976,45.456c-0.168,0.644,0.099,1.333,0.103,2.039
		c0.011,1.684,0.256,3.348,0.551,5.001c0.142,0.796,0.447,1.544,0.897,2.221c0.128,0.192,0.292,0.372,0.474,0.514
		c0.88,0.688,2.552,0.775,3.347-0.023c0.179-0.18,0.461-0.267,0.708-0.365c0.28-0.111,0.577-0.18,0.862-0.281
		c0.623-0.221,1.023-0.636,1.081-1.318c0.061-0.702,0.16-1.402,0.087-2.113c-0.031-0.299-0.045-0.611,0.008-0.904
		c0.157-0.874,0.046-1.742-0.006-2.612c-0.016-0.268-0.119-0.557-0.052-0.799c0.167-0.6,0.098-1.201,0.126-1.802
		c0.077-1.643,0.175-3.286,0.27-4.928c0.011-0.2,0.019-0.409,0.081-0.596c0.192-0.585,0.219-1.185,0.217-1.792
		c-0.002-0.908-0.02-1.816,0.002-2.723c0.021-0.938-0.03-1.877,0.111-2.816c0.06-0.402,0.235-0.768,0.264-1.173
		c0.095-1.333,0.141-2.672,0.428-3.986c0.034-0.158-0.005-0.333-0.015-0.501c-0.011-0.167-0.075-0.346-0.033-0.497
		c0.235-0.851,0.072-1.741,0.274-2.594c0.045-0.188,0.059-0.431-0.022-0.594c-0.294-0.589-0.112-1.192-0.08-1.781
		c0.015-0.273,0.013-0.504-0.068-0.771c-0.144-0.476-0.286-0.977-0.282-1.466c0.002-0.346-0.015-0.646-0.156-0.961
		c-0.236-0.53-0.347-1.076-0.172-1.665c0.063-0.213,0.067-0.494-0.02-0.69c-0.283-0.641-0.001-1.423-0.523-2.003
		c-0.07-0.078-0.055-0.265-0.031-0.392c0.116-0.62-0.158-1.183-0.279-1.761c-0.077-0.368-0.261-0.743-0.677-0.947
		c-0.691-0.339-1.385,0.096-2.074-0.068c-0.261-0.062-0.533,0.044-0.776,0.169c-0.149,0.076-0.302,0.155-0.43,0.262
		c-0.515,0.427-1.02,0.864-1.528,1.298c-0.157,0.134-0.257,0.3-0.315,0.503c-0.466,1.613-0.895,3.233-0.986,4.922
		c-0.015,0.268-0.041,0.536-0.082,0.801c-0.116,0.762-0.25,1.521-0.361,2.285c-0.023,0.159,0.023,0.329,0.032,0.494
		c0.009,0.166,0.047,0.34,0.011,0.496c-0.154,0.661-0.158,1.334-0.213,2.004c-0.056,0.666-0.117,1.332-0.165,2
		c-0.028,0.401,0,0.809-0.057,1.205c-0.148,1.028-0.339,2.046-0.367,3.091c-0.019,0.668-0.188,1.331-0.222,2
		c-0.077,1.507-0.116,3.016-0.162,4.524c-0.006,0.198,0.035,0.398,0.059,0.597c0.019,0.165,0.086,0.335,0.062,0.494
		c-0.238,1.571-0.104,3.143-0.03,4.714C307.893,43.241,307.93,44.314,307.976,45.456z"/>
	<path fill-rule="evenodd" clip-rule="evenodd" fill="#FF0000" d="M198.08,6.543c-0.54-0.73-1.254-1.18-1.93-1.664
		c-0.317-0.228-0.431-0.482-0.43-0.842c0.001-0.304,0.002-0.603,0.104-0.896c0.107-0.312,0.304-0.525,0.621-0.604
		c0.324-0.079,0.657-0.118,0.959-0.281c0.081-0.043,0.209-0.049,0.296-0.018c0.698,0.25,1.394,0.007,2.083-0.03
		c0.581-0.032,1.141,0.043,1.708,0.096c0.289,0.027,0.489,0.176,0.615,0.45c0.154,0.334,0.307,0.67,0.562,0.951
		c0.802,0.882-0.037,2.361-1.223,2.403c-0.303,0.011-0.606-0.008-0.909-0.001c-0.2,0.005-0.4,0.026-0.601,0.051
		c-0.109,0.014-0.17,0.102-0.176,0.204c-0.003,0.058,0.029,0.145,0.074,0.173c0.197,0.125,0.406,0.232,0.609,0.349
		c0.629,0.361,0.992,0.897,1.022,1.627c0.068,1.651,0.366,3.264,0.706,4.878c0.223,1.054,0.492,2.09,0.803,3.117
		c0.185,0.61,0.438,1.199,0.651,1.801c0.773,2.186,1.376,4.432,2.271,6.575c0.575,1.376,0.904,2.81,1.199,4.264
		c0.167,0.817,0.479,1.606,0.734,2.405c0.653,2.049,1.244,4.122,1.988,6.138c0.617,1.669,1.16,3.364,1.798,5.024
		c0.204,0.533,0.376,1.081,0.513,1.634c0.09,0.362,0.179,0.715,0.364,1.04c0.05,0.087,0.114,0.188,0.109,0.279
		c-0.053,0.94,0.43,1.753,0.63,2.632c0.156,0.681,0.367,1.38,0.711,1.98c0.527,0.919,0.696,1.962,1.155,2.897
		c0.068,0.14,0.096,0.347,0.045,0.489c-0.194,0.542-0.437,1.065-1.022,1.306c-0.543,0.223-1.107,0.286-1.684,0.186
		c-0.347-0.06-0.642-0.205-0.747-0.585c-0.064-0.233-0.209-0.414-0.369-0.592c-0.107-0.12-0.209-0.278-0.235-0.433
		c-0.092-0.544-0.347-1.016-0.598-1.492c-0.096-0.181-0.133-0.375-0.193-0.566c-0.269-0.858-0.505-1.735-0.878-2.548
		c-0.278-0.605-0.586-1.172-0.738-1.84c-0.195-0.847-0.483-1.674-0.686-2.524c-0.208-0.879-0.461-1.749-0.69-2.623
		c-0.237-0.907-0.469-1.815-0.706-2.723c-0.051-0.195-0.1-0.394-0.177-0.578c-0.139-0.326-0.378-0.577-0.734-0.631
		c-0.493-0.075-0.99-0.249-1.493-0.06c-0.312,0.118-0.588,0.071-0.857-0.114c-0.322-0.221-0.695-0.226-1.067-0.237
		c-0.738-0.022-1.477-0.043-2.215-0.084c-1.039-0.059-2.077-0.136-3.117-0.205c-0.256-0.017-0.36,0.061-0.362,0.355
		c-0.002,0.773-0.011,1.548,0.043,2.318c0.047,0.676,0.011,1.343-0.038,2.015c-0.042,0.569-0.093,1.144-0.065,1.712
		c0.057,1.146,0.01,2.279-0.172,3.414c-0.105,0.656-0.115,1.329-0.167,1.994c-0.008,0.101,0.021,0.217-0.021,0.3
		c-0.342,0.709-0.335,1.501-0.544,2.241c-0.119,0.422-0.219,0.845-0.276,1.28c-0.093,0.697-0.429,1.19-1.167,1.335
		c-0.229,0.045-0.453,0.124-0.679,0.19c-0.376,0.112-0.663-0.015-0.869-0.331c-0.429-0.658-0.771-1.345-0.67-2.167
		c0.036-0.302,0.047-0.601-0.036-0.9c-0.034-0.125-0.051-0.28-0.007-0.396c0.237-0.626,0.186-1.25,0.046-1.885
		c-0.043-0.192-0.069-0.414-0.018-0.598c0.281-0.99,0.156-2.001,0.188-3.003c0.023-0.736-0.071-1.475,0.027-2.213
		c0.044-0.334,0.008-0.672-0.099-0.998c-0.053-0.163-0.082-0.331-0.003-0.491c0.322-0.659,0.244-1.373,0.279-2.069
		c0.03-0.599-0.099-1.203,0.091-1.801c0.058-0.181,0.017-0.404-0.021-0.6c-0.06-0.307-0.003-0.58,0.076-0.882
		c0.146-0.547,0.22-1.118,0.271-1.684c0.078-0.838,0.277-1.646,0.457-2.464c0.239-1.084,0.592-2.135,0.878-3.202
		c0.349-1.297,0.688-2.597,0.979-3.906c0.195-0.876,0.502-1.732,0.534-2.646c0.01-0.295,0.093-0.607,0.22-0.876
		c0.309-0.653,0.42-1.343,0.491-2.049c0.062-0.602,0.133-1.203,0.211-1.802c0.045-0.348-0.042-0.674-0.159-0.987
		c-0.233-0.621-0.333-1.202,0.048-1.83c0.281-0.464,0.219-1.045,0.252-1.577c0.055-0.88,0.435-1.688,0.506-2.563
		c0.082-0.995,0.372-1.961,0.424-2.961C197.609,7.173,197.92,6.874,198.08,6.543z M199.561,19.238
		c-0.024,0.314-0.017,0.608-0.075,0.888c-0.331,1.577-0.664,3.155-1.022,4.725c-0.359,1.572-0.872,3.108-1.122,4.707
		c-0.125,0.794-0.248,1.59-0.351,2.388c-0.049,0.39-0.311,0.763-0.103,1.175c0.392,0.074,0.784,0.209,1.175,0.206
		c0.462-0.005,0.826,0.269,1.259,0.317c1.278,0.142,2.55,0.033,3.819-0.1c0.197-0.021,0.389-0.105,0.581-0.164
		c0.16-0.049,0.2-0.19,0.176-0.32c-0.034-0.195-0.07-0.412-0.181-0.569c-0.318-0.455-0.427-0.98-0.576-1.495
		c-0.123-0.419-0.279-0.828-0.399-1.248c-0.138-0.483-0.322-0.967-0.361-1.46c-0.077-0.977-0.332-1.918-0.489-2.879
		c-0.064-0.395-0.216-0.774-0.32-1.164c-0.185-0.687-0.59-1.279-0.832-1.94c-0.14-0.379-0.271-0.748-0.561-1.058
		c-0.257-0.275-0.344-0.631-0.278-1.03C199.975,19.753,199.961,19.746,199.561,19.238z"/>
	<path fill-rule="evenodd" clip-rule="evenodd" fill="#FF0000" d="M102.888,37.996c-0.471,0-0.942-0.008-1.413,0.004
		c-0.199,0.005-0.425,0.001-0.59,0.092c-0.319,0.176-0.622,0.212-0.965,0.107c-0.221-0.067-0.397,0.028-0.481,0.249
		c-0.096,0.25-0.203,0.5-0.262,0.76c-0.254,1.11-0.491,2.225-0.738,3.336c-0.116,0.521-0.239,1.041-0.364,1.56
		c-0.031,0.13-0.13,0.266-0.109,0.383c0.096,0.539-0.182,0.971-0.361,1.435c-0.18,0.466-0.314,0.916-0.292,1.452
		c0.036,0.86-0.214,1.718,0.002,2.594c0.083,0.339-0.151,0.666-0.441,0.854c-0.509,0.331-0.691,0.793-0.66,1.366
		c0.016,0.297-0.09,0.51-0.333,0.685c-0.189,0.136-0.406,0.283-0.51,0.478c-0.431,0.813-1.164,0.667-1.86,0.618
		c-0.151-0.011-0.317-0.117-0.436-0.225c-0.224-0.202-0.418-0.436-0.624-0.658c-0.225-0.244-0.282-0.509-0.167-0.835
		c0.248-0.699,0.348-1.434,0.16-2.15c-0.146-0.558,0.125-1.058,0.077-1.589c-0.003-0.03,0.013-0.075,0.035-0.092
		c0.648-0.493,0.462-1.28,0.665-1.927c0.118-0.378,0.108-0.785,0.345-1.144c0.141-0.214,0.232-0.511,0.222-0.766
		c-0.024-0.632,0.241-1.176,0.418-1.75c0.099-0.32,0.203-0.65,0.227-0.981c0.099-1.372,0.512-2.699,0.559-4.077
		c0.005-0.161,0.081-0.321,0.129-0.48c0.067-0.225,0.184-0.446,0.201-0.675c0.077-0.973,0.386-1.9,0.534-2.861
		c0.108-0.708,0.21-1.451,0.528-2.126c0.099-0.21,0.153-0.446,0.202-0.676c0.112-0.531,0.287-1.019,0.621-1.468
		c0.229-0.308,0.474-0.655,0.385-1.109c-0.085-0.433,0.351-0.74,0.341-1.135c-0.009-0.393-0.173-0.78-0.229-1.176
		c-0.021-0.154,0.035-0.34,0.109-0.484c0.45-0.868,0.409-1.797,0.406-2.735c-0.003-0.836,0.067-1.674,0.147-2.507
		c0.094-0.969,0.226-1.935,0.359-2.899c0.042-0.301,0.069-0.596,0.043-0.901c-0.041-0.472-0.028-0.936,0.245-1.361
		c0.209-0.326,0.208-0.703,0.181-1.076c-0.029-0.405-0.018-0.796,0.139-1.188c0.097-0.24,0.102-0.526,0.107-0.792
		c0.026-1.321,0.377-2.573,0.792-3.812c0.086-0.259,0.218-0.492,0.41-0.688c0.357-0.365,0.745-0.553,1.264-0.298
		c0.33,0.162,0.692,0.258,1.035,0.394c0.555,0.22,0.968,0.599,1.216,1.145c0.262,0.576,0.536,1.136,0.484,1.814
		c-0.027,0.354,0.079,0.74,0.207,1.081c0.302,0.801,0.325,1.641,0.405,2.472c0.042,0.44,0.09,0.866,0.334,1.251
		c0.206,0.324,0.177,0.713,0.261,1.072c0.222,0.944,0.417,1.894,0.651,2.835c0.129,0.519,0.271,1.043,0.491,1.526
		c0.185,0.406,0.28,0.811,0.354,1.244c0.135,0.793,0.306,1.583,0.527,2.356c0.13,0.456,0.219,0.911,0.296,1.375
		c0.114,0.695,0.221,1.39,0.405,2.076c0.174,0.644,0.229,1.322,0.319,1.987c0.1,0.733,0.18,1.468,0.27,2.202
		c0.053,0.436,0.129,0.858,0.351,1.252c0.326,0.583,0.481,1.24,0.777,1.844c0.241,0.493,0.277,1.106,0.317,1.672
		c0.064,0.898,0.476,1.677,0.82,2.466c0.323,0.741,0.674,1.448,0.614,2.284c-0.007,0.096,0.018,0.203,0.056,0.293
		c0.427,1.021,0.679,2.099,1.014,3.149c0.082,0.259,0.186,0.5,0.13,0.781c-0.034,0.169-0.012,0.349,0.097,0.482
		c0.257,0.313,0.278,0.681,0.26,1.051c-0.04,0.852,0.285,1.582,0.782,2.231c0.194,0.253,0.227,0.553,0.361,0.789
		c0.301,0.527,0.229,1.095,0.359,1.634c0.069,0.288-0.013,0.524-0.227,0.73c-0.194,0.187-0.394,0.374-0.547,0.592
		c-0.233,0.334-0.571,0.463-0.937,0.534c-0.328,0.063-0.665,0.073-0.982,0.207c-0.111,0.047-0.283,0.042-0.391-0.011
		c-0.973-0.487-1.89-1.033-2.069-2.253c-0.398-0.479-0.199-1.081-0.335-1.609c-0.143-0.556-0.275-1.104-0.301-1.679
		c-0.012-0.266-0.054-0.543-0.149-0.79c-0.39-1.007-0.32-2.114-0.702-3.123c-0.056-0.147-0.031-0.332-0.015-0.497
		c0.044-0.446-0.003-0.867-0.238-1.263c-0.082-0.138-0.152-0.32-0.137-0.473c0.075-0.744-0.313-1.363-0.526-2.026
		c-0.09-0.283-0.236-0.544-0.294-0.848c-0.078-0.41-0.408-0.687-0.646-1.008c-0.106-0.142-0.299-0.142-0.465-0.145
		c-0.474-0.008-0.91-0.093-1.358-0.294c-0.344-0.154-0.791-0.084-1.192-0.104c-0.235-0.011-0.47-0.002-0.706-0.002
		C102.888,38.014,102.888,38.005,102.888,37.996z M102.11,20.793c-0.189,0.933-0.621,1.65-0.574,2.484
		c0.007,0.125-0.082,0.254-0.113,0.385c-0.085,0.359-0.141,0.727-0.249,1.078c-0.322,1.058-0.189,2.211-0.687,3.231
		c-0.028,0.057-0.026,0.132-0.025,0.199c0.02,0.948-0.267,1.861-0.319,2.8c-0.028,0.501-0.022,1.003-0.057,1.503
		c-0.066,0.948,0.143,1.164,1.063,1.062c0.1-0.011,0.212-0.006,0.295-0.05c0.392-0.21,0.81-0.119,1.187-0.036
		c0.528,0.117,1.02,0.31,1.552,0.002c0.174-0.101,0.397,0.01,0.575,0.111c0.342,0.194,0.585-0.003,0.8-0.217
		c0.226-0.224,0.161-0.485,0.024-0.743c-0.093-0.177-0.227-0.369-0.225-0.553c0.004-0.486-0.195-0.912-0.3-1.366
		c-0.166-0.718-0.365-1.43-0.424-2.173c-0.044-0.568-0.152-1.128-0.441-1.642c-0.112-0.199-0.137-0.447-0.206-0.671
		c-0.371-1.215-0.624-2.47-1.205-3.617c-0.073-0.145-0.065-0.328-0.116-0.487C102.537,21.688,102.483,21.247,102.11,20.793z"/>
	<path fill-rule="evenodd" clip-rule="evenodd" fill="#FF0000" d="M5.876,9.867C6.37,9.412,6.864,8.958,7.357,8.503
		C7.653,8.44,7.915,8.317,8.093,8.059C8.31,7.927,8.525,7.796,8.741,7.665c0.216,0.013,0.421-0.014,0.585-0.176
		c0.211-0.082,0.422-0.164,0.632-0.245c0.716-0.144,1.437-0.256,2.167-0.335c0.598-0.065,1.197-0.03,1.79-0.118
		c0.506,0.046,1.013,0.092,1.519,0.138c0.078,0.13,0.176,0.156,0.299,0.056c0.427,0.096,0.849,0.237,1.281,0.278
		c0.832,0.081,1.521,0.507,2.232,0.869c0.475,0.242,0.815,0.641,1.142,1.096c0.703,0.979,1.056,2.096,1.466,3.192
		c0.151,0.404,0.214,0.849,0.265,1.281c0.184,1.568,0.309,3.14,0.895,4.636c0.26,0.665-0.269,1.485-0.97,1.612
		c-1.013,0.183-2.009,0.066-2.986-0.241c-0.063-0.02-0.124-0.052-0.183-0.083c-0.513-0.274-1.054-1.877-0.617-2.475
		c0.08-0.109,0.159-0.218,0.248-0.318c0.697-0.794,0.8-1.745,0.711-2.738c-0.039-0.435-0.164-0.866-0.174-1.3
		c-0.013-0.606-0.32-1.089-0.566-1.6c-0.056-0.116-0.145-0.253-0.254-0.3c-0.551-0.24-0.972-0.703-1.593-0.842
		c-0.517-0.116-0.986-0.399-1.519-0.524c-1.121-0.262-2.204-0.184-3.275,0.187c-0.538,0.187-1.096,0.349-1.589,0.623
		c-1.058,0.589-1.8,1.51-2.308,2.586c-0.546,1.158-0.818,2.399-1.054,3.664c-0.21,1.133-0.349,2.238-0.196,3.379
		c0.021,0.16,0.003,0.341-0.053,0.493c-0.291,0.785-0.343,1.558,0.03,2.334c0.09,0.188,0.067,0.391,0.01,0.592
		c-0.199,0.698-0.167,1.375,0.05,2.079C6.86,25.901,6.88,26.4,6.833,26.858c-0.135,1.315,0,2.628,0.083,3.928
		c0.074,1.162,0.08,2.348,0.376,3.496c0.15,0.581-0.001,1.217,0.318,1.774c0.043,0.075,0.027,0.203,0,0.295
		c-0.274,0.92-0.147,1.849-0.116,2.786c0.042,1.234,0.266,2.468,0.066,3.71c-0.037,0.225-0.006,0.47,0.039,0.698
		c0.122,0.626,0.253,1.251,0.406,1.871c0.281,1.14,0.964,1.862,2.134,2.162c0.812,0.208,1.602,0.496,2.438,0.624
		c0.962,0.147,1.87,0.002,2.747-0.396c0.275-0.125,0.557-0.236,0.826-0.374c0.114-0.058,0.244-0.147,0.294-0.256
		c0.395-0.846,0.879-1.651,1.14-2.56c0.167-0.582,0.331-1.196,0.706-1.661c0.522-0.648,0.547-1.356,0.456-2.095
		c-0.176-1.429-0.394-2.852-0.585-4.279c-0.075-0.562-0.25-1.01-0.832-1.269c-0.479-0.213-0.807-0.719-1.388-0.776
		c-0.058-0.006-0.113-0.07-0.162-0.115c-0.524-0.476-0.755-1.588-0.468-2.245c0.218-0.498,0.545-0.694,1.113-0.668
		c0.669,0.032,1.336,0.056,2.009,0.046c1.404-0.021,2.812-0.021,4.215,0.135c0.822,0.091,1.286,0.505,1.403,1.322
		c0.019,0.131,0.092,0.254,0.118,0.385c0.14,0.72-0.184,1.222-0.915,1.26c-0.627,0.033-1.179,0.234-1.734,0.479
		c-0.212,0.093-0.335,0.233-0.312,0.458c0.07,0.667-0.008,1.344,0.154,2.009c0.079,0.322,0.103,0.671,0.077,1.002
		c-0.047,0.611,0.025,1.205,0.109,1.807c0.256,1.839,0.197,3.679-0.02,5.519c-0.101,0.853-0.553,1.492-1.181,2.02
		c-0.313,0.264-0.601,0.528-0.789,0.9c-0.092,0.183-0.206,0.352-0.189,0.562c0.044,0.569-0.341,0.855-0.749,1.099
		c-0.345,0.207-0.723,0.357-1.084,0.532c-0.191-0.113-0.392-0.095-0.577-0.004c-0.345,0.17-0.716,0.185-1.083,0.174
		c-1.306-0.037-2.614,0.017-3.915-0.174c-0.523-0.077-1.062-0.13-1.593-0.009c-0.331-0.062-0.664-0.186-0.991-0.17
		c-0.539,0.025-1.001-0.148-1.423-0.427c-0.434-0.287-0.896-0.461-1.403-0.516c-0.353-0.039-0.66-0.118-0.83-0.47
		c-0.095-0.197-0.301-0.257-0.479-0.351c-0.157-0.083-0.274-0.225-0.287-0.394c-0.052-0.736-0.521-1.305-0.777-1.958
		c-0.175-0.444-0.293-0.883-0.356-1.355c-0.098-0.729-0.187-1.458-0.384-2.177c-0.229-0.836-0.382-1.692-0.333-2.581
		c0.033-0.6,0.032-1.237-0.138-1.803c-0.152-0.51-0.287-1.023-0.422-1.537c-0.317-1.202-0.643-2.401-0.965-3.602
		c-0.009-0.032-0.034-0.066-0.029-0.095c0.175-0.975-0.394-1.813-0.512-2.737c-0.067-0.524-0.303-1.025-0.452-1.541
		c-0.243-0.839-0.243-1.726-0.518-2.564c-0.134-0.411-0.076-0.854,0.035-1.293c0.206-0.813,0.384-1.635,0.369-2.485
		c-0.004-0.196,0.086-0.393,0.117-0.591c0.086-0.563,0.291-1.106,0.269-1.687c-0.002-0.066,0.005-0.138,0.028-0.199
		c0.438-1.15,0.278-2.407,0.585-3.559c0.393-1.473,0.562-3.051,1.542-4.322c0.148-0.099,0.239-0.227,0.208-0.417
		c0.177-0.133,0.355-0.266,0.532-0.398C4,11.786,4.163,11.669,4.228,11.427c0.552-0.32,0.812-0.929,1.296-1.315
		C5.712,10.132,5.821,10.038,5.876,9.867z"/>
	<path fill-rule="evenodd" clip-rule="evenodd" fill="#FF0000" d="M233.71,52.433c0.015-0.913,0.041-1.848,0.226-2.782
		c0.115-0.584,0.098-1.213,0.03-1.81c-0.071-0.629,0.154-1.279-0.144-1.888c0.21-0.584,0.026-1.217,0.17-1.787
		c0.245-0.967,0.135-1.94,0.208-2.908c0.078-1.038,0.138-2.078,0.169-3.119c0.027-0.907,0.088-1.809,0.179-2.712
		c0.046-0.463-0.021-0.939-0.059-1.408c-0.036-0.439,0.003-0.853,0.124-1.288c0.15-0.542,0.243-1.126,0.215-1.684
		c-0.047-0.882,0.229-1.724,0.224-2.594c-0.002-0.369,0.09-0.75,0.029-1.106c-0.19-1.115,0.054-2.194,0.196-3.282
		c0.057-0.436,0.129-0.859,0.008-1.297c-0.131-0.47,0.073-0.928,0.108-1.392c0.051-0.672,0.195-1.326-0.123-1.976
		c-0.064-0.133-0.054-0.348,0.006-0.491c0.231-0.556,0.146-1.13,0.128-1.697c-0.018-0.57-0.088-1.136-0.042-1.711
		c0.035-0.461-0.14-0.905-0.148-1.383c-0.027-1.402,0.154-2.818-0.187-4.208c-0.136-0.552-0.203-1.122-0.437-1.647
		c-0.134-0.302-0.113-0.606,0.042-0.875c0.301-0.522,0.561-1.104,0.981-1.513c0.402-0.39,0.912-0.848,1.602-0.516
		c0.161,0.078,0.323,0.101,0.485,0.033c0.277-0.117,0.52-0.026,0.771,0.09c0.114,0.052,0.292,0.102,0.38,0.049
		c0.475-0.28,0.862-0.077,1.32,0.086c0.457,0.163,0.99,0.111,1.49,0.149c0.135,0.01,0.298-0.042,0.398,0.018
		c0.539,0.319,1.075,0.108,1.631,0.081c1.175-0.058,2.327-0.316,3.5-0.346c0.54-0.013,1.021-0.322,1.574-0.253
		c0.331,0.041,0.671,0.039,1.006,0.019c1.095-0.064,1.706,0.635,2.277,1.411c0.195,0.266,0.216,0.556,0.122,0.862
		c-0.221,0.716-0.56,1.394-1.047,1.937c-0.364,0.406-0.896,0.715-1.511,0.683c-0.406-0.021-0.802-0.042-1.176,0.171
		c-0.185,0.104-0.415,0.089-0.581-0.028c-0.331-0.234-0.701-0.2-1.067-0.217c-1.31-0.062-2.619-0.121-3.93-0.181
		c-0.066-0.003-0.135,0-0.201-0.005c-0.482-0.036-0.918,0.208-1.373,0.248c-0.453,0.04-0.878-0.271-1.364-0.278
		c-0.528-0.008-0.755,0.391-1.075,0.663c-0.231,0.197-0.206,0.471-0.107,0.747c0.057,0.156,0.106,0.331,0.093,0.492
		c-0.124,1.49,0.282,2.937,0.35,4.412c0.064,1.406,0.161,2.81,0.243,4.214c-0.214,0.805,0.063,1.601,0.039,2.4
		c-0.012,0.399,0.059,0.809-0.077,1.203c-0.031,0.092-0.07,0.216-0.033,0.29c0.271,0.55,0.086,1.128,0.092,1.687
		c0.007,0.566,0.148,1.132,0.001,1.705c-0.085,0.329,0.096,0.589,0.396,0.739c0.688,0.343,1.413,0.474,2.138,0.171
		c0.375-0.157,0.698-0.186,1.057-0.008c0.148,0.073,0.32,0.152,0.477,0.144c0.682-0.037,0.986,0.503,1.388,0.885
		c0.181,0.171,0.165,0.434,0.17,0.669c0.011,0.533-0.021,1.059,0.067,1.601c0.133,0.82-0.399,1.592-1.18,1.921
		c-0.12,0.051-0.263,0.079-0.393,0.075c-1.044-0.032-2.081,0.036-3.113,0.199c-0.295,0.046-0.604-0.017-0.905,0.008
		c-0.315,0.025-0.5,0.193-0.529,0.511c-0.033,0.37-0.038,0.734-0.259,1.059c-0.101,0.148-0.08,0.32-0.009,0.483
		c0.164,0.372,0.162,0.714-0.158,1.014c-0.259,0.244-0.239,0.549-0.12,0.841c0.243,0.592,0.257,1.172-0.016,1.755
		c-0.015,0.03-0.036,0.066-0.03,0.095c0.123,0.677-0.184,1.317-0.177,1.974c0.006,0.7-0.073,1.396,0.024,2.106
		c0.071,0.512-0.021,1.069-0.182,1.589c-0.049,0.159-0.131,0.345-0.089,0.487c0.297,1.024-0.03,2.057,0.071,3.077
		c0.087,0.872,0.111,1.738,0.056,2.611c-0.011,0.165,0.031,0.334,0.068,0.499c0.096,0.439,0.271,0.573,0.706,0.445
		c0.414-0.121,0.786-0.079,1.181,0.059c0.482,0.169,0.976,0.262,1.418-0.131c0.048-0.042,0.125-0.085,0.182-0.078
		c0.727,0.098,1.449-0.264,2.181,0.006c0.606,0.224,1.225,0.233,1.882,0.168c0.826-0.082,1.665-0.007,2.491,0.225
		c0.573,0.162,1.189,0.187,1.789,0.243c0.378,0.036,0.73,0.088,1.011,0.379c0.208,0.216,0.49,0.388,0.502,0.726
		c0.017,0.498,0.145,1.013-0.116,1.484c-0.078,0.14-0.204,0.279-0.344,0.356c-0.712,0.396-1.453,0.651-2.3,0.612
		c-1.443-0.066-2.888-0.07-4.333-0.1c-0.066-0.001-0.144-0.022-0.2,0.002c-0.756,0.335-1.503,0.165-2.258-0.013
		c-0.424-0.1-0.854-0.163-1.27,0.105c-0.122,0.08-0.331,0.072-0.489,0.043c-1.054-0.192-2.067-0.008-3.073,0.291
		c-0.129,0.039-0.258,0.082-0.391,0.103c-0.687,0.106-1.269-0.081-1.689-0.653c-0.158-0.215-0.275-0.46-0.413-0.691
		c-0.103-0.173-0.169-0.398-0.318-0.505c-0.534-0.384-0.65-0.914-0.607-1.511C233.77,53.329,233.597,52.899,233.71,52.433z"/>
	<path fill-rule="evenodd" clip-rule="evenodd" fill="#FF0000" d="M81.709,39.999c0.196-0.342,0.354-0.659,0.299-1.054
		c-0.027-0.192,0-0.413,0.072-0.592c0.162-0.401,0.125-0.792,0.022-1.188c-0.06-0.235-0.07-0.457,0.037-0.687
		c0.436-0.945,0.762-1.923,0.976-2.947c0.207-0.988,0.684-1.889,1.028-2.833c0.137-0.376,0.349-0.729,0.322-1.155
		c-0.008-0.129,0.026-0.272,0.079-0.392c0.341-0.773,0.507-1.591,0.685-2.413c0.121-0.559,0.249-1.113,0.299-1.683
		c0.146-1.64,0.422-3.256,0.853-4.849c0.341-1.263,0.618-2.542,0.929-3.813c0.064-0.26,0.15-0.516,0.236-0.77
		c0.343-1.014,0.634-2.041,0.84-3.092c0.054-0.274,0.103-0.517-0.031-0.776c-0.08-0.154-0.114-0.364-0.005-0.484
		c0.508-0.566,0.465-1.315,0.626-1.975c0.271-1.11,1.313-1.706,2.513-1.339c0.675,0.207,1.183,0.634,1.445,1.309
		c0.06,0.154,0.118,0.329,0.104,0.488c-0.081,0.898-0.035,1.819-0.289,2.688c-0.187,0.639-0.529,1.229-0.775,1.853
		c-0.318,0.805-0.643,1.61-0.657,2.498c-0.002,0.128-0.047,0.268-0.112,0.379c-0.696,1.193-0.876,2.529-1.061,3.859
		c-0.046,0.334-0.115,0.659-0.184,0.988c-0.233,1.118-0.442,2.241-0.31,3.393c0.012,0.099,0.04,0.224-0.004,0.297
		c-0.387,0.628-0.322,1.356-0.469,2.036c-0.156,0.721-0.289,1.449-0.569,2.139c-0.13,0.321-0.142,0.649,0.032,0.974
		c0.137,0.255,0.136,0.525-0.052,0.759c-0.5,0.625-0.577,1.421-0.84,2.138c-0.138,0.375-0.218,0.79-0.441,1.115
		c-0.504,0.736-0.574,1.545-0.536,2.39c0.004,0.1,0.075,0.222,0.039,0.295c-0.348,0.698-0.34,1.483-0.559,2.207
		c-0.136,0.448-0.247,0.886-0.331,1.349c-0.149,0.824-0.226,1.645-0.265,2.476c-0.008,0.159-0.122,0.31-0.166,0.471
		c-0.115,0.419-0.292,0.823-0.244,1.279c0.017,0.159-0.025,0.339-0.091,0.488c-0.161,0.359-0.115,0.724-0.08,1.093
		c0.019,0.2,0.055,0.4,0.052,0.6c-0.007,0.367,0.035,0.757-0.076,1.095c-0.154,0.472-0.378,0.941-0.666,1.344
		c-0.268,0.375-0.641,0.682-1.001,0.979c-0.23,0.189-0.521,0.304-0.783,0.456c-0.451,0.262-0.879,0.364-1.231-0.155
		c-0.908-0.294-1.325-1.083-1.814-1.799c-0.057-0.083-0.119-0.165-0.187-0.239c-0.226-0.249-0.276-0.532-0.168-0.844
		c0.238-0.686,0.123-1.313-0.257-1.924c-0.23-0.37-0.196-0.847-0.438-1.225c-0.092-0.144-0.042-0.324-0.004-0.492
		c0.028-0.127,0.081-0.295,0.026-0.387c-0.466-0.786-0.25-1.712-0.567-2.544c-0.296-0.775-0.328-1.646-0.576-2.444
		c-0.249-0.801-0.192-1.674-0.606-2.431c-0.044-0.081-0.041-0.2-0.028-0.297c0.102-0.753-0.114-1.466-0.243-2.193
		c-0.219-1.226-0.458-2.455-0.865-3.623c-0.352-1.007-0.293-2.044-0.479-3.059c-0.248-1.354-0.519-2.704-0.754-4.058
		c-0.213-1.228-0.564-2.409-0.899-3.6c-0.127-0.453-0.25-0.907-0.378-1.359c-0.036-0.129-0.119-0.257-0.116-0.384
		c0.021-0.855-0.403-1.631-0.431-2.476c-0.687-2.22-0.502-4.528-0.691-6.799c-0.031-0.366-0.017-0.738,0.111-1.097
		c0.242-0.683,0.576-0.895,1.31-0.795c0.166,0.022,0.332,0.062,0.491,0.113c0.479,0.154,0.954,0.322,1.434,0.477
		C75.485,7.836,75.63,8,75.708,8.24c0.123,0.384,0.275,0.76,0.27,1.174c-0.011,0.976,0.104,1.941,0.227,2.908
		c0.194,1.535,0.245,3.085,0.5,4.615c0.071,0.431,0.116,0.858,0.263,1.279c0.109,0.31,0.191,0.682,0.122,0.99
		c-0.172,0.771,0.039,1.497,0.271,2.174c0.463,1.35,0.672,2.731,0.808,4.135c0.048,0.505,0.172,0.988,0.309,1.477
		c0.234,0.84,0.394,1.701,0.58,2.553c0.158,0.721,0.28,1.451,0.473,2.163c0.139,0.515,0.354,1.012,0.56,1.507
		c0.092,0.219,0.193,0.429,0.201,0.67c0.017,0.521,0.188,0.985,0.489,1.408c0.161,0.227,0.229,0.477,0.186,0.764
		c-0.024,0.162-0.009,0.337,0.027,0.499c0.235,1.047,0.484,2.092,0.58,3.166C81.58,39.811,81.656,39.895,81.709,39.999z"/>
	<path fill-rule="evenodd" clip-rule="evenodd" fill="#FF0000" d="M60.386,26.338c0.427-0.085,0.867,0.061,1.298-0.08
		c0.144-0.047,0.33,0.019,0.492,0.051c0.428,0.085,0.854,0.185,1.282,0.27c1.206,0.239,1.747,1.409,1.607,2.533
		c-0.063,0.51-0.413,0.928-0.988,1.01c-0.533,0.076-1.063,0.14-1.569,0.35c-0.252,0.105-0.545,0.088-0.781-0.064
		c-0.424-0.274-0.894-0.258-1.363-0.27c-0.807-0.021-1.614-0.044-2.421-0.063c-0.901-0.021-0.912-0.01-1.026,0.837
		c-0.081,0.598-0.217,1.196-0.004,1.795c-0.073,1.952,0.391,3.868,0.39,5.814c0,0.234-0.004,0.469-0.025,0.702
		c-0.104,1.138-0.135,2.27,0.059,3.405c0.062,0.359,0.005,0.738,0.021,1.107c0.014,0.335,0.044,0.671,0.084,1.004
		c0.044,0.359,0.22,0.589,0.584,0.739c0.408,0.168,0.801,0.342,1.249,0.35c0.067,0.001,0.137,0,0.201,0.018
		c0.643,0.177,1.268,0.191,1.939,0.052c0.619-0.128,1.254-0.194,1.869-0.368c0.354-0.101,0.716-0.176,1.071-0.273
		c0.236-0.064,0.483-0.109,0.671,0.066c0.256,0.24,0.554,0.191,0.852,0.204c0.406,0.017,0.762,0.098,1.099,0.401
		c0.309,0.278,0.733,0.496,1.14,0.582c0.886,0.188,1.362,0.801,1.778,1.503c0.08,0.134,0.086,0.323,0.09,0.487
		c0.004,0.165-0.076,0.335-0.054,0.495c0.101,0.723-0.264,1.133-0.878,1.406c-0.148,0.066-0.304,0.159-0.404,0.282
		c-0.266,0.324-0.569,0.428-0.98,0.317c-0.537-0.145-1.075-0.001-1.585,0.132c-0.702,0.183-1.406,0.092-2.096,0.061
		c-0.419-0.019-0.863-0.034-1.274-0.114c-0.389-0.076-0.625,0.111-0.921,0.238c-0.357,0.153-0.623-0.244-0.945-0.205
		c-0.296,0.035-0.583,0.19-0.779,0.428c-0.287,0.35-0.601,0.381-0.979,0.175c-0.114-0.062-0.292-0.161-0.367-0.117
		c-0.538,0.317-1.034,0.069-1.546-0.057c-0.228-0.056-0.465-0.028-0.695,0.054c-0.156,0.056-0.357,0.152-0.481,0.099
		c-0.444-0.19-0.856-0.288-1.328-0.063c-0.166,0.079-0.391-0.059-0.537-0.212c-0.261-0.274-0.561-0.479-0.934-0.57
		c-0.21-0.052-0.356-0.195-0.442-0.384c-0.171-0.376-0.402-0.69-0.762-0.914c-0.183-0.114-0.27-0.351-0.188-0.535
		c0.183-0.413,0.135-0.834,0.175-1.258c0.039-0.422,0.202-0.86,0.415-1.232c0.289-0.507,0.333-1.004,0.211-1.551
		c-0.035-0.158-0.038-0.34,0.003-0.496c0.328-1.239,0.428-2.505,0.464-3.778c0.015-0.537,0.179-1.077,0.047-1.608
		c-0.238-0.958-0.171-1.922-0.159-2.893c0.016-1.275-0.056-2.552-0.08-3.828c-0.006-0.301,0.027-0.603,0.047-0.904
		c0.095-1.415-0.145-2.816-0.17-4.226c-0.003-0.201-0.085-0.416-0.037-0.6c0.307-1.166,0.081-2.335,0.069-3.504
		c-0.02-1.85-0.034-3.7-0.008-5.549c0.016-1.113-0.045-2.22-0.119-3.327c-0.058-0.871-0.181-1.738-0.226-2.61
		c-0.022-0.432,0.057-0.87,0.111-1.302c0.034-0.266,0.141-0.526,0.151-0.791c0.017-0.417,0.082-0.797,0.383-1.114
		c0.357-0.375,0.778-0.649,1.286-0.743c0.356-0.065,0.726-0.079,1.087-0.105c0.843-0.061,1.664,0.21,2.5,0.089
		c0.13-0.019,0.27-0.007,0.4,0.018c1.371,0.259,2.749,0.181,4.112,0.009c1.269-0.16,2.537-0.217,3.811-0.217
		c1.111,0,1.901,0.637,2.506,1.475c0.539,0.746,0.229,1.724-0.597,2.101c-0.548,0.25-1.107,0.439-1.731,0.487
		c-1.808,0.138-3.611,0.344-5.416,0.515c-0.334,0.032-0.671,0.035-1.007,0.033c-0.236-0.002-0.477-0.038-0.692,0.079
		c-0.374,0.202-0.774,0.218-1.179,0.183c-0.632-0.057-1.084,0.296-1.533,0.651c-0.193,0.153-0.269,0.376-0.263,0.628
		c0.017,0.672,0.051,1.347-0.234,1.984c-0.025,0.057-0.036,0.148-0.007,0.196c0.37,0.615,0.006,1.329,0.27,1.959
		c0.048,0.116,0.041,0.27,0.016,0.399c-0.088,0.471-0.119,0.925,0.114,1.375c0.071,0.137,0.042,0.328,0.05,0.495
		c0.031,0.604,0.04,1.208,0.095,1.81c0.04,0.436,0.11,0.864-0.005,1.3c-0.031,0.12-0.019,0.271,0.025,0.388
		c0.125,0.331,0.076,0.664,0.046,0.998c-0.066,0.756,0.197,1.231,0.861,1.509c0.185,0.077,0.385,0.164,0.579,0.166
		C58.916,26.234,59.643,26.451,60.386,26.338z"/>
	<path fill-rule="evenodd" clip-rule="evenodd" fill="#FF0000" d="M168.428,53.141c-0.878,0.026-1.742-0.14-2.614-0.192
		c-0.645-0.039-1.29-0.014-1.885,0.223c-0.444,0.176-0.85,0.183-1.267,0.009c-0.391-0.164-0.763-0.203-1.17-0.04
		c-0.285,0.115-0.592,0.068-0.894-0.007c-0.834-0.208-1.653-0.156-2.455,0.165c-0.37,0.148-0.798,0.117-1.135,0.387
		c-0.091,0.073-0.257,0.07-0.39,0.071c-1.19,0.009-2.337-0.125-3.197-1.082c-0.144-0.159-0.333-0.218-0.495-0.332
		c-0.52-0.363-0.817-0.746-0.648-1.508c0.186-0.838,0.101-1.74,0.097-2.614c-0.003-1.041,0.01-2.086-0.09-3.12
		c-0.072-0.739-0.173-1.458,0.013-2.192c0.038-0.151-0.035-0.33-0.05-0.496c-0.04-0.433-0.119-0.864,0.006-1.301
		c0.044-0.156,0.031-0.333,0.018-0.5c-0.071-0.941-0.045-1.882,0.042-2.821c0.038-0.403,0.088-0.815-0.021-1.205
		c-0.215-0.763-0.142-1.534-0.098-2.3c0.027-0.473,0.028-0.943-0.027-1.407c-0.101-0.837-0.064-1.677-0.099-2.515
		c-0.031-0.737-0.071-1.475-0.11-2.209c-0.03-0.578,0.127-1.129,0.077-1.699c-0.046-0.533-0.116-1.071-0.007-1.609
		c0.026-0.129,0.042-0.274,0.009-0.398c-0.296-1.121-0.145-2.262-0.177-3.395c-0.003-0.101,0.006-0.203-0.006-0.303
		c-0.175-1.533-0.35-3.067-0.532-4.6c-0.119-0.997-0.234-1.995-0.381-2.988c-0.073-0.496-0.192-0.989-0.326-1.473
		c-0.17-0.618-0.315-1.237-0.329-1.879c-0.004-0.2-0.008-0.405,0.025-0.601c0.072-0.441,0.33-0.744,0.775-0.824
		c0.623-0.112,1.24-0.297,1.891-0.136c0.289,0.072,0.6,0.102,0.897-0.015c0.292-0.114,0.597-0.074,0.898-0.091
		c0.804-0.043,1.644,0.03,2.401-0.185c0.715-0.204,1.466-0.055,2.151-0.364c0.228-0.103,0.46,0.019,0.665,0.147
		c0.243,0.151,0.534,0.226,0.773,0.116c0.455-0.209,0.92-0.124,1.382-0.168c0.491-0.047,1.008-0.021,1.437-0.375
		c0.226-0.187,0.511-0.136,0.762,0.003c0.204,0.112,0.365,0.287,0.613,0.332c1.034,0.188,1.495,0.931,1.759,1.855
		c0.028,0.096,0.065,0.189,0.094,0.286c0.177,0.594,0.02,0.946-0.545,1.205c-0.213,0.098-0.433,0.181-0.65,0.271
		c-0.227,0.095-0.451,0.116-0.683,0.006c-0.12-0.057-0.245-0.111-0.375-0.142c-0.209-0.05-2.578,0.08-2.801,0.143
		c-0.129,0.036-0.258,0.119-0.383,0.113c-0.677-0.034-1.336,0.091-2,0.186c-1.022,0.146-2.064,0.13-3.076,0.386
		c-0.29,0.073-0.601,0.064-0.902,0.092c-0.202,0.019-0.391,0.055-0.567,0.179c-0.365,0.257-0.468,0.424-0.363,0.847
		c0.267,1.084,0.335,2.183,0.362,3.294c0.012,0.491,0.195,0.978,0.296,1.466c0.034,0.163,0.128,0.358,0.073,0.487
		c-0.255,0.589-0.112,1.189-0.108,1.786c0,0.066-0.047,0.154-0.019,0.196c0.403,0.608,0.158,1.295,0.226,1.94
		c0.076,0.726,0.044,1.461,0.083,2.191c0.033,0.637,0.043,1.283,0.169,1.904c0.094,0.463,0.497,0.799,0.922,0.965
		c0.305,0.12,0.66,0.272,1.044,0.021c0.353-0.23,0.79-0.015,1.185-0.037c0.354-0.02,0.646-0.325,1.054-0.251
		c0.583,0.105,1.076,0.377,1.505,0.754c0.229,0.201,0.444,0.432,0.722,0.539c0.696,0.272,0.699,0.863,0.658,1.431
		c-0.028,0.393-0.177,0.778-0.392,1.134c-0.354,0.584-0.814,0.875-1.511,0.695c-0.295-0.076-0.592-0.059-0.898-0.021
		c-0.295,0.036-0.618,0.033-0.9-0.051c-0.433-0.129-0.763-0.08-1.101,0.238c-0.326,0.307-0.759,0.193-1.159,0.157
		c-0.447-0.041-0.547,0.006-0.592,0.445c-0.075,0.728-0.149,1.446,0.006,2.195c0.155,0.744,0.135,1.531,0.135,2.298
		c-0.001,1.174-0.003,2.348,0.042,3.522c0.061,1.547,0.187,3.086,0.382,4.622c0.033,0.262-0.008,0.536-0.036,0.802
		c-0.073,0.716,0.03,1.408,0.28,2.077c0.057,0.152,0.134,0.35,0.259,0.416c0.966,0.503,1.904,1.21,3.085,0.565
		c0.293-0.16,0.588-0.149,0.851,0.063c0.229,0.186,0.475,0.222,0.755,0.171c0.164-0.03,0.359-0.083,0.498-0.026
		c0.68,0.285,1.313-0.149,1.975-0.099c0.085,0.006,0.2-0.058,0.261-0.125c0.401-0.438,0.811-0.405,1.239-0.049
		c0.025,0.021,0.061,0.049,0.088,0.046c0.717-0.067,1.271,0.363,1.885,0.611c0.188,0.076,0.393,0.054,0.593,0.069
		c0.633,0.044,1.265,0.121,1.895,0.209c0.904,0.127,1.294,0.758,1.311,1.638c0.006,0.345-0.097,0.661-0.235,0.972
		c-0.148,0.33-0.376,0.545-0.734,0.629c-0.556,0.129-1.105,0.288-1.689,0.177C168.769,53.115,168.596,53.141,168.428,53.141z"/>
	<path fill-rule="evenodd" clip-rule="evenodd" fill="#FF0000" d="M222.067,55.107c-0.554-0.293-0.809-0.671-0.844-1.239
		c-0.018-0.281-0.229-0.552-0.358-0.825c-0.12-0.252-0.161-0.493-0.053-0.773c0.132-0.34,0.206-0.704,0.306-1.057
		c0.018-0.065,0.069-0.143,0.049-0.192c-0.319-0.781,0.226-1.513,0.127-2.275c-0.1-0.776,0.054-1.544,0.039-2.317
		c-0.004-0.202,0.03-0.406,0.012-0.605c-0.197-2.078,0.002-4.163-0.104-6.243c-0.027-0.535,0.091-1.088-0.008-1.605
		c-0.103-0.54-0.064-1.052-0.028-1.583c0.126-1.841,0.222-3.683,0.18-5.53c-0.006-0.236,0.006-0.47-0.109-0.688
		c-0.154-0.293-0.131-0.583,0.028-0.866c0.122-0.215,0.151-0.458,0.119-0.686c-0.095-0.66,0.119-1.337-0.135-1.989
		c-0.055-0.139-0.03-0.347,0.034-0.487c0.198-0.426,0.126-0.855,0.083-1.29c-0.056-0.568-0.101-1.138-0.157-1.706
		c-0.026-0.266-0.067-0.531-0.107-0.796c-0.021-0.132-0.1-0.271-0.076-0.392c0.217-1.104-0.193-2.204-0.013-3.309
		c0.043-0.26,0.052-0.552-0.021-0.801c-0.202-0.691-0.168-1.38-0.075-2.074c0.049-0.371,0.039-0.719-0.09-1.085
		c-0.097-0.275-0.127-0.612-0.067-0.896c0.18-0.854-0.135-1.669-0.131-2.506c0.001-0.242-0.174-0.375-0.398-0.361
		c-0.659,0.039-1.334-0.195-1.981,0.165c-0.18,0.1-0.459,0.024-0.692,0.028c-0.532,0.009-1.071-0.085-1.568,0.229
		c-0.207,0.13-0.469,0.082-0.676-0.052c-0.279-0.179-0.559-0.347-0.782-0.62c-0.336-0.409-0.564-0.918-1.063-1.188
		c-0.158-0.085-0.198-0.267-0.216-0.436c-0.035-0.334-0.045-0.671-0.092-1.004c-0.098-0.701,0.218-1.159,0.825-1.449
		c0.45-0.216,0.903-0.43,1.365-0.623c0.4-0.167,0.796-0.091,1.16,0.116c0.178,0.101,0.341,0.195,0.557,0.19
		c1.209-0.024,2.421,0.097,3.627-0.051c0.593-0.073,1.166-0.301,1.783-0.177c0.111,0.022,0.256-0.069,0.371-0.133
		c0.256-0.144,0.503-0.136,0.773-0.035c0.553,0.208,1.097,0.275,1.63-0.094c0.124-0.086,0.327-0.109,0.483-0.088
		c0.599,0.083,1.211-0.161,1.802,0.088c0.081,0.035,0.209,0.028,0.288-0.014c0.388-0.205,0.802-0.121,1.191-0.078
		c0.699,0.077,1.393,0.065,2.086,0.004c0.575-0.051,1.007,0.102,1.433,0.538c0.352,0.361,0.72,0.696,0.982,1.13
		c0.186,0.309,0.199,0.624,0.062,0.965c-0.352,0.876-0.928,1.482-1.907,1.566c-0.368,0.031-0.626,0.183-0.868,0.439
		c-0.531,0.563-0.755,0.628-1.392,0.338c-0.256-0.117-0.502-0.13-0.769-0.165c-1.041-0.134-2.068,0.088-3.103,0.075
		c-0.426-0.005-0.663,0.209-0.606,0.624c0.132,0.971-0.024,1.938,0.036,2.906c0.092,1.474,0.194,2.947,0.268,4.421
		c0.037,0.739,0.072,1.477,0.139,2.215c0.066,0.734,0.026,1.477,0.037,2.216c0.011,0.738,0.058,1.477,0.032,2.214
		c-0.031,0.938-0.11,1.876-0.186,2.813c-0.161,1.975-0.324,3.949-0.506,5.922c-0.049,0.531-0.048,1.066-0.186,1.593
		c-0.075,0.283-0.092,0.619-0.011,0.896c0.177,0.605-0.111,1.198,0.02,1.792c-0.308,0.917-0.165,1.862-0.17,2.796
		c-0.008,1.378,0.01,2.756,0.023,4.133c0.007,0.64,0.032,1.278,0.044,1.917c0.004,0.271,0.051,0.531,0.13,0.792
		c0.058,0.188,0.113,0.416,0.058,0.589c-0.136,0.419-0.104,0.778,0.152,1.143c0.116,0.166,0.066,0.387,0.027,0.59
		c-0.057,0.296-0.099,0.596-0.134,0.896c-0.057,0.479-0.004,0.937,0.255,1.361c0.256,0.419,0.232,0.828-0.08,1.216
		c-0.063,0.078-0.115,0.166-0.165,0.253c-0.396,0.695-0.377,0.881,0.28,1.324c0.38,0.255,0.57,0.562,0.535,1.003
		c-0.058,0.729,0.048,1.488-0.367,2.157c0.011,0.841-0.739,1.43-0.757,2.266c-0.001,0.087-0.079,0.188-0.147,0.256
		c-1.077,1.068-2.313,1.833-3.858,1.999c-0.251,0.027-0.491,0.009-0.634-0.21c-0.474-0.726-0.768-1.487-0.423-2.368
		c0.1-0.256,0.215-0.484,0.428-0.667c0.339-0.291,0.542-0.681,0.74-1.072c0.142-0.277,0.233-0.547,0.123-0.867
		c-0.107-0.311,0.001-0.577,0.212-0.833C221.336,56.341,221.464,55.6,222.067,55.107z"/>
	<path fill-rule="evenodd" clip-rule="evenodd" fill="#FF0000" d="M137.338,7.984c1.114-0.008,2.552,0.117,3.98,0.36
		c0.165,0.028,0.335,0.049,0.502,0.042c1.624-0.061,2.681,0.896,3.646,2.019c0.159,0.185,0.226,0.403,0.225,0.652
		c-0.002,0.785,0.156,1.538,0.491,2.249c0.105,0.223,0.125,0.451,0.116,0.688c-0.041,1.039,0.06,2.073,0.099,3.11
		c0.013,0.344,0.059,0.677-0.236,0.931c-0.337,0.289-0.704,0.592-1.16,0.537c-0.623-0.074-1.298-0.129-1.597-0.85
		c-0.024-0.06-0.078-0.109-0.125-0.158c-0.641-0.677-0.841-1.502-0.84-2.407c0-0.779-0.131-1.539-0.47-2.249
		c-0.119-0.25-0.175-0.509-0.184-0.779c-0.019-0.529-0.334-0.826-0.737-1.125c-0.684-0.508-1.402-0.37-2.114-0.191
		c-0.326,0.082-0.637,0.196-0.979,0.193c-0.428-0.004-0.817,0.176-1.095,0.458c-0.487,0.495-1.049,0.945-1.285,1.645
		c-0.086,0.254-0.21,0.495-0.311,0.744c-0.105,0.258-0.252,0.454-0.528,0.572c-0.509,0.217-0.707,0.662-0.84,1.179
		c-0.211,0.821-0.23,1.657-0.259,2.489c-0.048,1.41-0.151,2.819-0.031,4.233c0.037,0.43-0.035,0.871-0.075,1.305
		c-0.052,0.566-0.173,1.13,0.086,1.686c0.049,0.106,0.004,0.264-0.019,0.395c-0.018,0.098-0.119,0.201-0.099,0.281
		c0.202,0.824-0.026,1.661,0.108,2.494c0.213,1.321,0.398,2.651,0.407,3.996c0.001,0.133,0.011,0.272,0.046,0.4
		c0.183,0.66,0.235,1.313,0.05,1.99c-0.077,0.281-0.015,0.601-0.004,0.903c0.008,0.235,0.064,0.475-0.039,0.698
		c-0.177,0.388-0.289,0.74,0.155,1.055c0.164,0.117,0.175,0.384,0.082,0.566c-0.204,0.398-0.137,0.793-0.018,1.177
		c0.197,0.634,0.179,1.257,0.019,1.891c-0.092,0.362-0.119,0.722,0.044,1.085c0.313,0.698,0.285,1.437,0.214,2.176
		c-0.016,0.166-0.105,0.363-0.045,0.492c0.294,0.633,0.222,1.32,0.353,1.974c0.063,0.319,0.25,0.623,0.423,0.908
		c0.222,0.366,0.517,0.553,1.005,0.493c1.004-0.125,2.003-0.102,2.986,0.245c0.817,0.288,1.587,0.021,2.313-0.385
		c0.214-0.12,0.357-0.282,0.459-0.511c0.42-0.95,1.017-1.813,1.329-2.821c0.141-0.454,0.289-0.892,0.29-1.371
		c0.001-0.167-0.007-0.345,0.042-0.501c0.288-0.926,0.027-1.814-0.341-2.617c-0.482-1.051,0.575-2.434,1.787-2.147
		c0.163,0.038,0.333,0.048,0.501,0.058c1.133,0.064,1.71,0.84,2.159,1.735c0.182,0.363,0.201,0.806-0.031,1.167
		c-0.216,0.339-0.243,0.695-0.227,1.063c0.038,0.838-0.155,1.677,0.012,2.514c0.048,0.239-0.006,0.466-0.103,0.688
		c-0.189,0.437-0.275,0.898-0.292,1.372c-0.027,0.769-0.318,1.433-0.785,2.032c-0.288,0.37-0.507,0.77-0.712,1.198
		c-0.648,1.355-1.651,2.275-3.273,2.261c-0.134-0.001-0.275,0-0.4,0.04c-1.389,0.444-2.799,0.085-4.198,0.113
		c-0.164,0.003-0.372-0.005-0.487-0.098c-0.513-0.41-1.137-0.36-1.722-0.471c-0.65-0.124-1.118-0.583-1.657-0.91
		c-0.437-0.723-1.126-1.227-1.633-1.888c-0.101-0.132-0.251-0.273-0.263-0.419c-0.074-0.941-0.654-1.68-0.979-2.519
		c-0.115-0.297-0.089-0.593-0.156-0.885c-0.269-1.176-0.601-2.35-0.228-3.569c0.074-0.24,0.009-0.488-0.108-0.683
		c-0.293-0.491-0.165-1.05-0.3-1.563c-0.023-0.09-0.013-0.221,0.038-0.292c0.334-0.468,0.212-0.997,0.114-1.465
		c-0.204-0.968-0.073-1.938-0.146-2.903c-0.02-0.268-0.011-0.541-0.066-0.801c-0.057-0.27-0.089-0.527-0.011-0.795
		c0.028-0.095,0.049-0.202,0.036-0.298c-0.205-1.468,0-2.95-0.157-4.419c-0.022-0.204-0.03-0.398,0.042-0.595
		c0.044-0.123,0.098-0.265,0.074-0.383c-0.187-0.935-0.093-1.847,0.098-2.775c0.113-0.545,0.057-1.125,0.07-1.69
		c0.002-0.099-0.028-0.2-0.05-0.298c-0.11-0.484,0.245-0.927,0.159-1.383c-0.081-0.431-0.205-0.842-0.115-1.286
		c0.081-0.401,0.018-0.8-0.01-1.204c-0.052-0.763-0.157-1.519-0.157-2.292c0-0.863-0.204-1.731-0.365-2.588
		c-0.059-0.313-0.072-0.579,0.06-0.875c0.218-0.486,0.487-0.951,0.562-1.497c0.025-0.186,0.164-0.367,0.283-0.525
		c0.443-0.593,0.895-1.179,1.353-1.76c0.366-0.465,0.831-0.77,1.429-0.864c0.398-0.063,0.802-0.126,1.184-0.248
		C135.462,7.935,136.229,7.926,137.338,7.984z"/>
	<path fill-rule="evenodd" clip-rule="evenodd" fill="#FF0000" d="M294.959,8.462c-0.064,0.959-0.129,1.897-0.191,2.835
		c-0.005,0.067,0.017,0.14-0.003,0.201c-0.22,0.683-0.203,1.366-0.021,2.053c0.033,0.127,0.056,0.286,0.011,0.399
		c-0.339,0.839,0.021,1.628,0.132,2.438c0.068,0.494,0.07,1.015-0.111,1.489c-0.224,0.581-0.252,1.174-0.225,1.778
		c0.023,0.538-0.021,1.067-0.066,1.605c-0.084,0.996-0.223,2.01,0.064,3.004c0.059,0.204,0.056,0.396-0.047,0.584
		c-0.261,0.477-0.206,0.997-0.11,1.483c0.149,0.764,0.14,1.514,0.04,2.277c-0.028,0.224,0.017,0.474,0.092,0.69
		c0.125,0.366,0.119,0.739,0.073,1.099c-0.067,0.53-0.236,1.046,0.077,1.562c0.053,0.088,0.009,0.271-0.045,0.384
		c-0.212,0.443-0.25,0.905-0.202,1.381c0.024,0.243-0.058,0.462-0.121,0.689c-0.054,0.191-0.127,0.411-0.081,0.591
		c0.138,0.55-0.004,1.065-0.125,1.586c-0.147,0.625-0.175,1.264-0.227,1.9c-0.022,0.27-0.044,0.532,0.037,0.799
		c0.048,0.157,0.098,0.348,0.053,0.494c-0.243,0.775,0.037,1.536,0.025,2.303c-0.013,0.773-0.048,1.544,0.067,2.316
		c0.055,0.363,0.028,0.739,0.021,1.109c-0.026,1.346-0.06,2.691-0.089,4.036c-0.004,0.168-0.032,0.346,0.009,0.503
		c0.28,1.085,0.152,2.201,0.269,3.296c0.069,0.647,0.013,1.266-0.182,1.886c-0.118,0.376-0.048,0.469,0.302,0.607
		c0.186,0.074,0.384,0.129,0.551,0.234c0.227,0.142,0.432,0.162,0.655,0.014c0.056-0.037,0.118-0.072,0.182-0.085
		c0.131-0.028,0.302-0.102,0.392-0.048c0.59,0.349,1.283-0.178,1.849,0.234c0.259,0.188,0.487,0.135,0.751,0.018
		c0.275-0.122,0.568-0.208,0.859-0.288c0.123-0.034,0.263-0.02,0.395-0.019c0.303,0.003,0.366,0.419,0.651,0.408
		c0.226-0.008,0.424-0.201,0.671-0.169c0.1,0.013,0.212,0.013,0.294,0.062c0.488,0.291,0.977,0.583,1.449,0.898
		c0.266,0.176,0.41,0.445,0.392,0.776c-0.013,0.235-0.017,0.473-0.066,0.701c-0.192,0.877-0.474,1.124-1.361,1.21
		c-0.599,0.058-1.216-0.068-1.793,0.19c-0.502-0.185-0.986-0.027-1.476,0.072c-0.032,0.006-0.071,0.01-0.1-0.002
		c-0.566-0.249-1.19-0.168-1.768-0.302c-0.575-0.133-1.134-0.128-1.701-0.083c-0.707,0.057-1.406,0.051-2.112-0.023
		c-0.465-0.048-0.94-0.01-1.41,0.019c-0.34,0.021-0.648,0.008-0.978-0.138c-0.427-0.189-0.897-0.275-1.345-0.419
		c-0.535-0.173-0.817-0.547-0.893-1.107c-0.051-0.377-0.03-0.749,0.076-1.1c0.357-1.172,0.36-2.392,0.488-3.592
		c0.12-1.134,0.139-2.278,0.198-3.418c0.01-0.167,0.02-0.338-0.006-0.502c-0.13-0.866-0.09-1.732-0.081-2.604
		c0.021-2.084-0.016-4.169-0.068-6.253c-0.013-0.514,0.101-1.001,0.136-1.503c0.041-0.604,0.079-1.208,0.109-1.813
		c0.021-0.405,0.042-0.815,0.211-1.187c0.225-0.497,0.452-0.981,0.244-1.542c-0.011-0.03-0.016-0.073-0.002-0.099
		c0.279-0.555,0.18-1.165,0.274-1.739c0.104-0.647,0.051-1.269,0.02-1.895c-0.06-1.212,0.012-2.417,0.069-3.625
		c0.013-0.271,0.017-0.533-0.04-0.8c-0.215-1.029-0.213-2.065-0.089-3.105c0.13-1.1,0.221-2.204,0.431-3.292
		c0.115-0.597,0.161-1.199,0.149-1.808c-0.007-0.333-0.043-0.673,0.083-1c0.061-0.158,0.098-0.33,0.011-0.489
		c-0.177-0.326-0.117-0.639-0.014-0.974c0.057-0.185,0.076-0.421,0.011-0.596c-0.302-0.811-0.047-1.665-0.226-2.484
		c-0.056-0.257-0.051-0.542-0.007-0.803c0.083-0.498,0.076-0.966-0.001-1.478c-0.082-0.542,0.003-1.132-0.005-1.702
		c-0.005-0.355,0.233-0.621,0.506-0.837c0.469-0.374,0.984-0.669,1.386-1.151c0.416-0.5,1.352-0.414,1.83,0.056
		c0.12,0.117,0.199,0.279,0.327,0.383C294.965,7.427,295.121,7.902,294.959,8.462z"/>
	<path fill-rule="evenodd" clip-rule="evenodd" fill="#FF0000" d="M180.842,7.002c0.244-0.016,0.335-0.162,0.433-0.294
		c0.137-0.181,0.329-0.258,0.533-0.202c0.426,0.117,0.836-0.003,1.251-0.013c0.683-0.015,1.313-0.147,1.971-0.308
		c0.729-0.178,1.513-0.304,2.25,0.089c0.144,0.076,0.328,0.136,0.482,0.118c0.918-0.11,1.415,0.536,1.902,1.105
		c0.669,0.782,1.003,1.736,1.102,2.765c0.04,0.419-0.063,0.609-0.446,0.809c-0.03,0.016-0.063,0.027-0.093,0.042
		c-0.578,0.283-1.252,0.296-1.817,0.55c-0.598,0.268-1.178,0.208-1.772,0.227c-0.368,0.012-0.74-0.047-1.107-0.024
		c-0.459,0.029-0.946-0.036-1.315,0.373c-0.166,0.184-0.442,0.11-0.674,0.14c-0.525,0.068-0.728,0.291-0.671,0.798
		c0.059,0.532,0.128,1.073,0.284,1.582c0.105,0.342,0.137,0.632,0.021,0.971c-0.073,0.214-0.115,0.485-0.049,0.692
		c0.208,0.652,0.145,1.332,0.258,1.994c0.17,0.991,0.162,2.002,0.189,3.009c0.029,1.142,0.096,2.283,0.189,3.421
		c0.024,0.302,0.035,0.58-0.003,0.885c-0.097,0.761-0.176,1.522-0.142,2.302c0.073,1.71,0.053,3.423,0.035,5.136
		c-0.019,1.746,0.079,3.488,0.389,5.215c0.083,0.458,0.052,0.937,0.062,1.406c0.015,0.706,0.027,1.413,0.024,2.119
		c-0.002,0.27-0.03,0.538,0.09,0.792c0.104,0.223,0.108,0.459,0.057,0.692c-0.12,0.538-0.052,1.068,0.022,1.604
		c0.153,1.103,0.204,2.207,0.005,3.311c-0.018,0.099-0.071,0.214-0.04,0.295c0.249,0.661-0.013,1.328,0.036,1.995
		c0.066,0.916-0.289,1.771-0.657,2.602c-0.103,0.232-0.293,0.382-0.542,0.402c-0.534,0.042-1.068,0.042-1.597,0.177
		c-0.266,0.068-0.549-0.13-0.607-0.416c-0.125-0.62-0.395-1.2-0.339-1.871c0.046-0.56-0.089-1.133-0.124-1.702
		c-0.053-0.837-0.144-1.674-0.097-2.517c0.015-0.268-0.005-0.54-0.037-0.806c-0.224-1.772-0.159-3.546-0.053-5.32
		c0.053-0.87,0.084-1.738,0.213-2.606c0.112-0.761,0.086-1.542,0.111-2.315c0.011-0.336-0.025-0.675,0.002-1.009
		c0.148-1.836-0.289-3.608-0.563-5.399c-0.139-0.896-0.214-1.793-0.224-2.708c-0.011-0.934-0.075-1.878-0.244-2.811
		c-0.113-0.623-0.068-1.273-0.172-1.898c-0.187-1.126-0.146-2.284-0.493-3.387c-0.06-0.188-0.105-0.417-0.057-0.598
		c0.295-1.07-0.121-2.134,0-3.2c0.025-0.23,0.021-0.479-0.038-0.7c-0.13-0.501-0.139-0.99,0.004-1.488
		c0.086-0.297,0.071-0.601-0.015-0.896c-0.079-0.272-0.318-0.451-0.611-0.399c-0.306,0.053-0.577,0.027-0.883-0.043
		c-0.504-0.116-1.045-0.025-1.54-0.273c-0.126-0.063-0.339-0.012-0.49,0.045c-0.729,0.271-1.47,0.121-2.2,0.063
		c-0.64-0.05-0.978-0.558-1.27-1.045c-0.315-0.525-0.385-1.148-0.487-1.737c-0.075-0.426,0.077-0.868,0.396-1.21
		c0.205-0.222,0.42-0.435,0.622-0.66c0.18-0.199,0.407-0.248,0.643-0.18c0.223,0.063,0.471,0.137,0.638,0.285
		c0.507,0.45,1.062,0.366,1.587,0.137c0.371-0.161,0.703-0.256,1.043-0.028c0.314,0.211,0.572,0.096,0.842-0.062
		c0.086-0.051,0.171-0.109,0.246-0.175c0.362-0.324,0.729-0.329,1.07,0.016c0.19,0.193,0.339,0.149,0.517,0.003
		c0.104-0.085,0.219-0.158,0.335-0.225c0.564-0.328,0.856-0.299,1.351,0.126C180.675,6.854,180.771,6.941,180.842,7.002z"/>
	<path fill-rule="evenodd" clip-rule="evenodd" fill="#FF0000" d="M281.384,55.425c0.128-1.019-0.093-1.982-0.136-2.956
		c-0.071-1.615,0.017-3.228-0.008-4.841c-0.015-0.908-0.044-1.815-0.065-2.723c-0.006-0.201-0.046-0.41-0.008-0.604
		c0.171-0.871,0.031-1.745,0.063-2.614c0.035-0.936,0.016-1.875,0.214-2.808c0.125-0.582,0.059-1.203,0.101-1.805
		c0.066-0.931,0.153-1.859,0.264-2.787c0.09-0.764,0.046-1.544,0.052-2.318c0.015-1.614,0.009-3.229,0.038-4.842
		c0.011-0.634-0.128-1.276,0.098-1.905c0.039-0.105-0.063-0.255-0.076-0.386c-0.046-0.465-0.1-0.917,0.042-1.394
		c0.133-0.444,0.123-0.932-0.031-1.39c-0.097-0.291-0.167-0.586-0.142-0.891c0.075-0.904,0-1.816,0.177-2.716
		c0.077-0.392,0.083-0.805,0.071-1.207c-0.043-1.375,0.193-2.755-0.083-4.126c-0.03-0.152,0.002-0.349,0.076-0.486
		c0.302-0.556,0.145-1.116,0.053-1.675c-0.021-0.124-0.078-0.271-0.17-0.349c-0.276-0.237-0.332-0.529-0.403-0.875
		c-0.104-0.513-0.225-0.976,0.181-1.402c-0.075-0.52,0.324-0.769,0.614-1.084c0.421-0.459,0.933-0.493,1.48-0.316
		c0.813,0.262,1.334,0.878,1.813,1.537c0.102,0.14,0.097,0.313,0.069,0.486c-0.063,0.396-0.12,0.792-0.171,1.19
		c-0.017,0.131-0.041,0.275-0.005,0.396c0.18,0.6,0.057,1.205-0.009,1.792c-0.201,1.81-0.312,3.613-0.009,5.419
		c0.047,0.282-0.004,0.525-0.138,0.773c-0.283,0.521-0.288,1.026,0.133,1.491c0.14,0.154,0.248,0.337,0.203,0.548
		c-0.165,0.764-0.097,1.525,0.008,2.287c0.005,0.033,0.017,0.07,0.008,0.1c-0.23,0.73-0.019,1.46-0.017,2.191
		c0.001,0.406,0.025,0.805,0.078,1.204c0.077,0.569,0.069,1.138,0.021,1.71c-0.05,0.597-0.118,1.194-0.04,1.797
		c0.029,0.229-0.009,0.467-0.023,0.7c-0.031,0.491-0.188,0.982,0.093,1.464c0.073,0.124,0.039,0.333,0.007,0.493
		c-0.075,0.368-0.096,0.728-0.02,1.1c0.033,0.159,0.02,0.343-0.029,0.498c-0.124,0.39-0.191,0.771-0.099,1.182
		c0.052,0.23-0.038,0.458-0.118,0.685c-0.146,0.41-0.269,0.83-0.365,1.253c-0.06,0.259-0.063,0.533-0.073,0.801
		c-0.022,0.537,0.391,1.069,0.147,1.579c-0.225,0.473-0.32,0.968-0.371,1.451c-0.122,1.159-0.285,2.335,0.158,3.478
		c0.211,0.544,0.19,1.131,0.162,1.694c-0.046,0.881,0.121,1.736,0.214,2.6c0.021,0.2,0.08,0.395,0.03,0.595
		c-0.205,0.833-0.057,1.676-0.041,2.511c0.01,0.433,0.059,0.87,0.051,1.306c-0.007,0.372-0.013,0.738,0.138,1.09
		c0.167,0.385,0.012,0.817,0.122,1.193c0.237,0.798,0.034,1.448-0.503,2.037c-0.188,0.206-0.233,0.474-0.307,0.735
		c-0.183,0.654-0.638,1.006-1.309,1.076c-0.167,0.018-0.337,0.025-0.504,0.013c-0.897-0.065-1.253-0.294-1.445-1.104
		c-0.156-0.659-0.246-1.313-0.261-1.984C281.378,55.992,281.384,55.689,281.384,55.425z"/>
	<path fill-rule="evenodd" clip-rule="evenodd" fill="#FF0000" d="M284.221,0.032c0.182,0.008,0.417,0.006,0.65,0.033
		c0.163,0.019,0.375,0.027,0.474,0.129c0.461,0.481,1.067,0.833,1.39,1.436c0.207,0.388,0.308,0.82,0.129,1.261
		c-0.063,0.155-0.171,0.315-0.103,0.479c0.257,0.612-0.071,1.006-0.462,1.411c-0.302,0.312-0.557,0.67-0.818,1.018
		c-0.178,0.237-0.398,0.305-0.689,0.327c-0.662,0.048-1.255-0.199-1.831-0.437c-0.915-0.379-1.516-1.636-1.28-2.602
		c0.157-0.65,0.391-1.282,0.57-1.928c0.142-0.511,0.653-0.648,0.959-0.994C283.473-0.132,283.845,0.067,284.221,0.032z"/>
	<path fill-rule="evenodd" clip-rule="evenodd" fill="#FF0000" d="M10.369,51.03c0.531-0.122,1.07-0.068,1.593,0.009
		c1.301,0.191,2.609,0.137,3.915,0.174c0.367,0.011,0.737-0.004,1.083-0.174c0.185-0.091,0.386-0.109,0.577,0.004
		c-0.018,0.06-0.025,0.166-0.054,0.172c-0.68,0.153-1.362,0.403-2.044,0.407c-0.604,0.003-1.222,0.037-1.844-0.079
		c-0.841-0.157-1.714-0.139-2.57-0.229C10.796,51.288,10.467,51.394,10.369,51.03z"/>
	<path fill-rule="evenodd" clip-rule="evenodd" fill="#FF0000" d="M13.915,6.791c-0.593,0.088-1.192,0.053-1.79,0.118
		c-0.73,0.079-1.45,0.191-2.167,0.335c0.09-0.276,0.36-0.277,0.565-0.337c1.031-0.302,2.087-0.366,3.154-0.264
		C13.76,6.65,13.835,6.74,13.915,6.791z"/>
	<path fill-rule="evenodd" clip-rule="evenodd" fill="#FF0000" d="M8.093,8.059C7.915,8.317,7.653,8.44,7.357,8.503
		C7.458,8.115,7.762,8.064,8.093,8.059z"/>
	<path fill-rule="evenodd" clip-rule="evenodd" fill="#FF0000" d="M9.326,7.489C9.162,7.651,8.957,7.678,8.741,7.665
		C8.865,7.369,9.091,7.415,9.326,7.489z"/>
	<path fill-rule="evenodd" clip-rule="evenodd" fill="#FF0000" d="M4.228,11.427C4.163,11.669,4,11.786,3.755,11.801
		C3.741,11.459,3.966,11.419,4.228,11.427z"/>
	<path fill-rule="evenodd" clip-rule="evenodd" fill="#FF0000" d="M3.224,12.199c0.031,0.189-0.061,0.317-0.208,0.417
		C2.926,12.303,2.938,12.277,3.224,12.199z"/>
	<path fill-rule="evenodd" clip-rule="evenodd" fill="#FF0000" d="M15.732,6.985c-0.123,0.1-0.221,0.074-0.299-0.056
		C15.57,6.813,15.627,6.824,15.732,6.985z"/>
	<path fill-rule="evenodd" clip-rule="evenodd" fill="#FF0000" d="M5.876,9.867c-0.055,0.171-0.164,0.266-0.352,0.245
		C5.551,9.9,5.669,9.819,5.876,9.867z"/>
</g>
</svg>
