<?xml version="1.0" encoding="utf-8"?>
<!-- Generator: Adobe Illustrator 16.0.0, SVG Export Plug-In . SVG Version: 6.00 Build 0)  -->
<!DOCTYPE svg PUBLIC "-//W3C//DTD SVG 1.1//EN" "http://www.w3.org/Graphics/SVG/1.1/DTD/svg11.dtd">
<svg version="1.1" id="Layer_1" xmlns="http://www.w3.org/2000/svg" xmlns:xlink="http://www.w3.org/1999/xlink" x="0px" y="0px"
	 width="24.993px" height="25px" viewBox="0 0 24.993 25" enable-background="new 0 0 24.993 25" xml:space="preserve">
<g>
	<g>
		<defs>
			<rect id="SVGID_1_" width="24.96" height="25"/>
		</defs>
		<clipPath id="SVGID_2_">
			<use xlink:href="#SVGID_1_"  overflow="visible"/>
		</clipPath>
		<path clip-path="url(#SVGID_2_)" fill="#FFFFFF" d="M3.953,10.738c-3.824,0.609-3.68,2.926-3.906,4.032
			c-0.445,2.766,2.402,5.859,2.402,5.859l-0.164,3.215h4.641l0.355-1.477c0,0,0.203,0.336,1.403,0.438
			c1.199,0.102,1.05-1.359,1.05-1.359s0.797-0.352,0.797-0.617s-0.469-0.605-0.469-0.605s0.508,0.09,0.692-0.121
			c0.18-0.215-0.227-0.988-0.227-0.988s0.625-0.016,0.996-0.422c0.368-0.402-1.16-1.605-1.16-2.379
			C11.23,12.07,7.781,10.129,3.953,10.738L3.953,10.738z M3.953,10.738"/>
		<path clip-path="url(#SVGID_2_)" fill="#FFFFFF" d="M24.945,15.613c-0.223-1.105-0.082-3.418-3.906-4.027
			c-3.828-0.614-7.273,1.328-6.406,5.57c0,0.773-1.531,1.977-1.164,2.383c0.371,0.406,0.996,0.422,0.996,0.422
			s-0.406,0.77-0.223,0.984c0.18,0.215,0.691,0.121,0.691,0.121s-0.473,0.34-0.473,0.604c0,0.268,0.797,0.619,0.797,0.619
			s-0.145,1.465,1.051,1.363c1.199-0.107,1.402-0.441,1.402-0.441l0.355,1.48h4.641l-0.164-3.219
			C22.543,21.473,25.395,18.379,24.945,15.613L24.945,15.613z M24.945,15.613"/>
	</g>
	<path fill="#FFFFFF" d="M11.707,9.023l-1.402,2.449l0.605-0.093c0.039-0.004,4.07-0.633,6.836-1.45
		c3.629-1.078,5.711-2.863,5.711-4.902C23.457,2.254,20.18,0,16.145,0c-4.032,0-7.309,2.254-7.309,5.027
		C8.836,6.597,9.902,8.074,11.707,9.023L11.707,9.023z M16.145,0.589c3.707,0,6.723,1.989,6.723,4.438
		c0,2.5-3.699,3.863-5.285,4.336c-2.094,0.617-4.926,1.129-6.152,1.336l1.105-1.93l-0.289-0.137c-1.766-0.839-2.82-2.187-2.82-3.605
		C9.426,2.582,12.441,0.589,16.145,0.589L16.145,0.589z M16.145,0.589"/>
</g>
</svg>
